<?xml version="1.0" encoding="utf-8"?>
<!-- Generator: Adobe Illustrator 27.6.1, SVG Export Plug-In . SVG Version: 6.00 Build 0)  -->
<svg version="1.1" id="Capa_1" xmlns="http://www.w3.org/2000/svg" xmlns:xlink="http://www.w3.org/1999/xlink" x="0px" y="0px"
	 viewBox="0 0 512 512" style="enable-background:new 0 0 512 512;" xml:space="preserve">
<style type="text/css">
	.st0{fill:#461483;}
</style>
<g>
	<g>
		<path class="st0" d="M42.7,262l8.3,23.3c0.4,1,1.1,1.8,1.9,2.2l20.7,9.3c2.9,1.3,2.9,6,0,7.3l-20.7,9.3c-0.9,0.4-1.6,1.2-1.9,2.2
			l-8.3,23.3c-1.2,3.3-5.3,3.3-6.5,0l-8.3-23.3c-0.4-1-1.1-1.8-1.9-2.2L5.3,304c-2.9-1.3-2.9-6,0-7.3l20.7-9.3
			c0.9-0.4,1.6-1.2,1.9-2.2l8.3-23.3C37.4,258.7,41.5,258.7,42.7,262z"/>
		<path class="st0" d="M484.4,125l6.1,17.2c0.3,0.7,0.8,1.3,1.4,1.6l15.3,6.9c2.2,1,2.2,4.4,0,5.4l-15.3,6.9
			c-0.7,0.3-1.2,0.9-1.4,1.6l-6.1,17.2c-0.9,2.4-3.9,2.4-4.8,0l-6.1-17.2c-0.3-0.7-0.8-1.3-1.4-1.6l-15.3-6.9c-2.2-1-2.2-4.4,0-5.4
			l15.3-6.9c0.7-0.3,1.2-0.9,1.4-1.6l6.1-17.2C480.4,122.5,483.5,122.5,484.4,125z"/>
		<ellipse transform="matrix(0.23 -0.9732 0.9732 0.23 255.4348 412.2426)" class="st0" cx="388.2" cy="44.7" rx="18.1" ry="18.1"/>
		<ellipse class="st0" cx="57.4" cy="157.1" rx="7.8" ry="7.8"/>
	</g>
	<g>
		<path class="st0" d="M446.2,345c12.7-22.3,15.9-45,9.6-67.5c-7.6-27.1-22.1-52.6-42-74c0.5-21.5-1.8-42.3-6.5-59.1
			c-6.2-22-16.2-35.3-29-38.5c-24.8-6.2-50.6,20.8-65.9,36.9c-1.7,1.8-3.7,3.9-5.2,5.3c-17.7-1.1-33.1,0.5-49.4,5.1
			c-18.2,5.1-35.1,13.9-50.3,26.1c-2.5,0-6.7-0.2-10.3-0.3c-35.4-1.6-70.8-1.3-81.5,20.2c-13.3,26.7,3.8,47.4,25.5,73.6
			c2,2.4,4,4.8,6,7.3c-6.1,28.3-5.4,57,2,83.4c0.8,2.9,1.8,5.7,2.9,8.4c-1.4-0.5-2.9-1-4.4-1.4c-13.7-3.9-28.4-2.3-41.2,4.4
			c-14.5,7.6-25.5,21.2-31.8,39.3c-2.5,7.1-2,14.8,1.3,21.6s9,11.9,16.2,14.3c14.7,5.1,30.8-2.7,35.9-17.4c1.8-5.1,3.7-7.2,4.5-7.7
			c0.8,0.5,1.9,2.8,0.9,7.6c-5.5,25,1.8,42.4,8.9,52.6c8.7,12.5,22.1,21.4,37.8,25.1c5.3,1.2,10.6,1.9,15.8,1.9
			c0.7,0,1.4-0.1,2.1-0.2c1,0.2,2.1,0.3,3.2,0.1c5.5-0.7,9.4-5.7,8.8-11.2c-0.7-5.6-1-11.1-1-16.6c0-20.4,4.5-39.5,12.5-56.5
			c2.7,0.7,5.4,1.4,8.3,2.1c15.7,3.6,31.7,5,46.7,5c21.7,0,41.6-3,56-6.9c20.3-5.5,44-16.7,65.3-31.9c20.9,22.3,34,53.6,34,88.2
			c0,5.4-0.3,11-1,16.6c-0.7,5.5,3.2,10.5,8.8,11.2c0.4,0.1,0.8,0.1,1.2,0.1c5,0,9.4-3.7,10-8.8c0.8-6.4,1.2-12.8,1.2-19
			c0-39.2-14.6-74.8-38.2-100.7C426.9,372,438.3,359,446.2,345L446.2,345z M158.8,473.6c-4.8-6.9-9.7-18.9-5.8-36.8
			c3.8-17.5-5.2-28.5-15.3-31.4c-9.5-2.7-22.1,1.3-28.8,20.6c-1.5,4.2-6.1,6.5-10.3,5c-2-0.7-3.7-2.2-4.6-4.1
			c-0.9-1.9-1.1-4.1-0.4-6.2c9.7-28.1,31.4-35.7,48.5-30.9c9.5,2.7,17.4,9,22.5,17.7c5.4,9.4,6.9,20.7,4.2,32.7
			c-3.2,14.4,1,25.6,11.6,31.5c2.8,1.5,5.7,2.6,8.6,3.2c-0.2,3-0.3,6.1-0.3,9.2c0,2.4,0.1,4.8,0.2,7.2c-1.4-0.2-2.9-0.5-4.3-0.8
			C173.9,488,164.7,482,158.8,473.6L158.8,473.6z M191.7,454.8c-0.5-0.2-1-0.4-1.4-0.6c-1.2-0.7-3.4-1.9-1.7-9.5
			c2.3-10.7,2.3-21.1,0-30.8c4.3,2.6,9,5,13.9,7.2C197.6,431.5,194,442.9,191.7,454.8z M327.3,408.4c-21.1,5.7-58.2,9.6-93,1.7
			c-24.9-5.6-56.5-19.2-65.7-52.1c-6.9-24.6-7.1-51.6-0.7-78.1l1.2-4.8l-3.1-3.9c-3.2-4-6.3-7.7-9.3-11.3
			c-21.1-25.5-30.2-37.4-23-51.8c1-1.9,5.1-6.7,22.9-8.7c6.1-0.7,12.7-0.9,19-0.9c7.4,0,14.6,0.3,20.6,0.6c13.8,0.6,18,0.8,21.9-2.5
			c1-0.9,2.1-1.7,3.1-2.5l9.4,29.1c1.4,4.3,5.3,7,9.6,7c1,0,2.1-0.2,3.1-0.5c5.3-1.7,8.2-7.4,6.5-12.7l-11.2-34.4
			c4.3-2.3,8.7-4.4,13.2-6.2l21.7,65c1.4,4.2,5.3,6.9,9.6,6.9c1.1,0,2.1-0.2,3.2-0.5c5.3-1.8,8.1-7.5,6.4-12.7l-21.5-64.5
			c4.8-1,9.5-1.8,14.3-2.2l11.5,35.6c1.4,4.3,5.3,7,9.6,7c1,0,2.1-0.2,3.1-0.5c5.3-1.7,8.2-7.4,6.5-12.7l-9.6-29.6
			c0.9,0.1,1.8,0.1,2.6,0.2c5.9,0.5,9.1-2.9,17.6-11.8c9.9-10.4,33-34.6,46.5-31.3c9.7,2.4,22,34.6,20.2,81.5l-0.2,4.3l3,3.1
			c19.1,19.6,33,43.3,40,68.5c4.8,17.1,2.2,34.7-7.7,52.1C408.5,370.6,362.4,398.8,327.3,408.4L327.3,408.4z"/>
		<path class="st0" d="M211.4,320.2c3.1,1.7,6.5,2.6,9.9,2.6c1.8,0,3.7-0.3,5.5-0.8c10.8-3,17.1-14.2,14.1-25
			c-0.9-3.2-4.2-5.1-7.4-4.2c-3.2,0.9-5.1,4.2-4.2,7.4c1.2,4.4-1.3,8.9-5.7,10.1c-2.1,0.6-4.3,0.3-6.2-0.8c-1.9-1.1-3.3-2.8-3.9-4.9
			c-0.9-3.2-4.2-5.1-7.4-4.2c-3.2,0.9-5.1,4.2-4.2,7.4C203.2,313.2,206.6,317.6,211.4,320.2L211.4,320.2z"/>
		<path class="st0" d="M378.2,273.4c2.7-4.7,3.3-10.2,1.9-15.4c-0.9-3.2-4.2-5.1-7.4-4.2c-3.2,0.9-5.1,4.2-4.2,7.4
			c0.6,2.1,0.3,4.3-0.7,6.2c-1.1,1.9-2.8,3.3-4.9,3.9c-2.1,0.6-4.3,0.3-6.2-0.7c-1.9-1.1-3.3-2.8-3.9-4.9c-0.9-3.2-4.2-5.1-7.4-4.2
			c-3.2,0.9-5.1,4.2-4.2,7.4c1.5,5.2,4.9,9.6,9.6,12.2c3.1,1.7,6.5,2.6,9.9,2.6c1.8,0,3.7-0.3,5.5-0.8
			C371.2,281.6,375.6,278.2,378.2,273.4L378.2,273.4z"/>
		<path class="st0" d="M324.1,318c-5.3,1.5-10.9,0.2-14.9-3.3c1.7-2.8,2.9-5.8,3.5-7.6c1.1-3.2-0.6-6.6-3.8-7.7
			c-3.2-1.1-6.6,0.6-7.7,3.8c-1,3.1-2.3,5.1-3,6.1c-1.4-0.4-4.1-1.6-7-3.8c-2.7-2-6.5-1.5-8.5,1.2c-2,2.7-1.5,6.5,1.2,8.5
			c1,0.7,4.1,3,7.8,4.6c-1.8,4.9-5.8,8.8-11,10.3c-3.2,0.9-5.1,4.2-4.2,7.4c0.7,2.7,3.2,4.4,5.8,4.4c0.5,0,1.1-0.1,1.6-0.2
			c8.6-2.4,15.4-8.7,18.7-16.7c4.9,3.7,10.9,5.7,17,5.7c2.5,0,5.1-0.3,7.6-1c3.2-0.9,5.1-4.2,4.2-7.4
			C330.6,319,327.3,317.1,324.1,318L324.1,318z"/>
		<path class="st0" d="M108.7,109c1.8,6.4,5.9,11.7,11.7,15c3.8,2.2,8,3.2,12.2,3.2c0.2,0,0.3,0,0.5,0l4.3,15.5
			c1.2,4.5,5.3,7.4,9.7,7.4c0.9,0,1.8-0.1,2.7-0.4c5.4-1.5,8.5-7,7-12.4l-4.1-14.8l16.7-4.6l4.1,14.8c1.2,4.5,5.3,7.4,9.7,7.4
			c0.9,0,1.8-0.1,2.7-0.4c5.4-1.5,8.5-7,7-12.4l-4.1-14.8l16.7-4.6l4.1,14.9c1.2,4.5,5.3,7.4,9.7,7.4c0.9,0,1.8-0.1,2.7-0.4
			c5.4-1.5,8.5-7,7-12.4l-4.1-14.9l16.7-4.6l4.1,14.9c1.2,4.5,5.3,7.4,9.7,7.4c0.9,0,1.8-0.1,2.7-0.4c5.4-1.5,8.5-7,7-12.4L261,92.3
			c10.7-5.1,16.5-17.3,13.2-29.1l-5.8-21.1c-4.1-14.8-13.7-27.1-27-34.7C228-0.1,212.5-2,197.8,2.1L143,17.2
			c-14.8,4.1-27.1,13.7-34.7,27s-9.5,28.8-5.4,43.6L108.7,109z M125.8,54.2c4.9-8.7,12.9-14.9,22.5-17.6l54.8-15.1
			c3.3-0.9,6.7-1.4,10-1.4c6.4,0,12.6,1.6,18.3,4.9c8.7,4.9,14.9,12.9,17.6,22.5l5.8,21.1c0.7,2.5-0.8,5.1-3.3,5.8L134,107
			c-1.6,0.5-3-0.1-3.6-0.4c-0.6-0.4-1.8-1.2-2.2-2.9l-5.8-21.1C119.7,72.9,120.9,62.9,125.8,54.2z"/>
		<path class="st0" d="M238,347.9c3.2-0.9,5.1-4.2,4.3-7.4c-0.9-3.2-4.2-5.1-7.4-4.3l-28.8,7.7c-3.2,0.9-5.1,4.2-4.3,7.4
			c0.7,2.7,3.2,4.5,5.8,4.5c0.5,0,1-0.1,1.6-0.2L238,347.9z"/>
		<path class="st0" d="M240.9,357.3l-28.8,7.7c-3.2,0.9-5.1,4.2-4.3,7.4c0.7,2.7,3.2,4.5,5.8,4.5c0.5,0,1-0.1,1.6-0.2l28.8-7.7
			c3.2-0.9,5.1-4.2,4.3-7.4C247.5,358.3,244.2,356.4,240.9,357.3z"/>
		<path class="st0" d="M398.7,303.6c3.2-0.9,5.1-4.2,4.3-7.4c-0.9-3.2-4.2-5.1-7.4-4.3l-28.8,7.7c-3.2,0.9-5.1,4.2-4.3,7.4
			c0.7,2.7,3.2,4.5,5.8,4.5c0.5,0,1-0.1,1.6-0.2L398.7,303.6z"/>
		<path class="st0" d="M401.6,313l-28.8,7.7c-3.2,0.9-5.1,4.2-4.3,7.4c0.7,2.7,3.2,4.5,5.8,4.5c0.5,0,1-0.1,1.6-0.2l28.8-7.7
			c3.2-0.9,5.1-4.2,4.3-7.4C408.1,314,404.8,312.1,401.6,313z"/>
		<path class="st0" d="M181.1,210.4c-1-0.1-25-2.1-30.3,8c-5.5,10.4,10.2,29.5,10.4,29.7c4.6,5.6,8.8,8.3,12.7,8.3
			c0.8,0,1.6-0.1,2.4-0.4c4.3-1.4,9.1-7.1,14.2-17c5.1-9.8,7-16.9,5.7-21C194.8,213.7,190,211.2,181.1,210.4L181.1,210.4z
			 M173.4,243.6c-4.3-3.5-11.3-15-11.7-19.4c4-2.2,17-2.5,22.5-1.2C182.8,228.6,176.9,239.7,173.4,243.6L173.4,243.6z"/>
		<path class="st0" d="M371.2,191.4c1.6,0,2.9-0.2,4-0.7c4.3-1.7,6.3-6.7,6.4-15.7c0-1,0.1-25-10.5-29.5
			c-10.9-4.6-28.5,12.6-28.7,12.8c-6.3,6.2-8.4,11.3-6.7,15.7c1.7,4.2,7.8,8.5,18.1,12.8C361.2,189.9,367,191.4,371.2,191.4z
			 M366.2,156.8c2.5,3.8,3.9,16.7,3,22.4c-5.6-1-17.2-5.9-21.4-9C351,165.6,361.9,157.6,366.2,156.8L366.2,156.8z"/>
		<path class="st0" d="M266.6,455.9c-3.3,0-6,2.7-6,6v43.8c0,3.3,2.7,6,6,6c3.3,0,6-2.7,6-6v-43.8
			C272.6,458.6,269.9,455.9,266.6,455.9z"/>
		<path class="st0" d="M372.4,455.9c-3.3,0-6,2.7-6,6v43.8c0,3.3,2.7,6,6,6s6-2.7,6-6v-43.8C378.4,458.6,375.7,455.9,372.4,455.9z"
			/>
		<path class="st0" d="M148.9,74.6c-2,0-4-0.6-5.7-1.8c-4.6-3.2-5.7-9.5-2.5-14c6.3-9.1,17-15.1,28.6-16.2
			c5.5-0.5,10.4,3.6,10.9,9.1c0.5,5.5-3.6,10.4-9.1,10.9c-5.7,0.5-11,3.5-13.9,7.7C155.2,73.1,152.1,74.6,148.9,74.6z"/>
	</g>
</g>
</svg>
