<?xml version="1.0" encoding="utf-8"?>
<!-- Generator: Adobe Illustrator 27.6.1, SVG Export Plug-In . SVG Version: 6.00 Build 0)  -->
<svg version="1.1" id="Layer_1" xmlns="http://www.w3.org/2000/svg" xmlns:xlink="http://www.w3.org/1999/xlink" x="0px" y="0px"
	 viewBox="0 0 512 512" style="enable-background:new 0 0 512 512;" xml:space="preserve">
<style type="text/css">
	.st0{fill:#461483;}
</style>
<g>
	<path class="st0" d="M268.9,170.7c-7.8,18-18.5,27.6-18.6,27.7c0,0-0.1,0-0.1,0.1c-7.4,6.7-11.7,16.2-11.7,26.2
		c0,11.2,5.1,21.5,14,28.2c9.5,7.2,22,9.6,33.5,6.5c4.5-1.2,9.8-1.9,15.3-1.9s10.9,0.7,15.5,2c3.4,1,6.9,1.4,10.3,1.4
		c7.4,0,14.8-2.2,21.1-6.4c8.7-5.8,14.5-14.8,15.8-24.9l0,0c1.6-12.5-3.2-24.6-12.9-32.4c-3.4-3.4-11.1-12.2-17.4-26.5
		c-5.5-13.2-18.2-21.6-32.5-21.6C287.2,149,274.4,157.5,268.9,170.7L268.9,170.7z M282.8,176.5c3.1-7.6,10.5-12.5,18.6-12.5
		c8.2,0,15.5,4.9,18.6,12.5v0.1c7.4,17.1,17.1,27.7,20.9,31.5c0.2,0.2,0.4,0.4,0.7,0.6c5.7,4.5,8.6,11.5,7.6,18.9
		c-0.8,5.9-4,11-9.2,14.4c-5.7,3.7-12.6,4.8-19.2,3c-5.9-1.7-12.7-2.5-19.6-2.5c-6.8,0-13.4,0.8-19.3,2.4c-7,1.9-14.7,0.5-20.4-3.9
		c-5.2-4-8.1-9.8-8.1-16.3c0-5.7,2.4-11.2,6.7-15.1c1.1-0.9,13.4-12.1,22.5-33L282.8,176.5z"/>
	<path class="st0" d="M226.3,133.5c-5.8-1.9-11.8-1.5-16.8,1.1c-12.3,6.3-15.7,23.3-7.8,38.5c4.3,8.3,11.3,14.6,19.1,17
		c2.4,0.8,4.9,1.2,7.2,1.2c3.4,0,6.7-0.8,9.6-2.3c12.3-6.3,15.7-23.3,7.8-38.5l0,0C241.1,142.2,234.1,136,226.3,133.5L226.3,133.5z
		 M230.7,175.8c-1.9,1-4,0.6-5.4,0.2c-4-1.3-7.9-4.9-10.3-9.6c-4.2-8.2-2.7-16.2,1.4-18.3c0.9-0.5,1.8-0.6,2.7-0.6
		c1,0,1.9,0.2,2.7,0.4c4,1.3,7.9,4.9,10.3,9.6C236.3,165.6,234.7,173.7,230.7,175.8z"/>
	<path class="st0" d="M364.9,189.1c2.9,1.5,6.2,2.3,9.6,2.3c2.4,0,4.8-0.4,7.2-1.2c7.8-2.5,14.8-8.7,19.1-17
		c7.9-15.3,4.4-32.2-7.8-38.5c-5-2.6-11-3-16.8-1.1c-7.8,2.5-14.8,8.7-19.1,17.1l0,0C349.2,165.8,352.7,182.7,364.9,189.1
		L364.9,189.1z M370.4,157.4c2.5-4.8,6.3-8.4,10.3-9.6c1.4-0.5,3.5-0.8,5.4,0.2c4,2.1,5.6,10.1,1.4,18.3c-2.5,4.8-6.3,8.4-10.3,9.6
		c-1.4,0.5-3.5,0.8-5.4-0.2C367.8,173.7,366.2,165.6,370.4,157.4L370.4,157.4z"/>
	<path class="st0" d="M271.5,141.1c6.9,0,13.2-4,17.2-11c3.5-6.1,4.9-14.1,4-22c-1.8-15.5-12.5-27.7-24.2-27.7
		c-6.9,0-13.2,4-17.2,11c-3.5,6.1-4.9,14.1-4,22C249.1,128.9,259.8,141.1,271.5,141.1z M264.3,98.8c0.5-0.8,2.1-3.5,4.1-3.5
		c3,0,8.3,5.8,9.3,14.4l0,0c0.6,4.7-0.2,9.5-2.1,12.8c-0.5,0.8-2.1,3.5-4.1,3.5c-3,0-8.3-5.8-9.3-14.4
		C261.6,106.9,262.4,102.1,264.3,98.8z"/>
	<path class="st0" d="M331.5,141.1c11.7,0,22.4-12.2,24.2-27.7c0.9-7.9-0.5-15.9-4-22c-4-7-10.3-11-17.2-11
		c-11.7,0-22.4,12.2-24.2,27.7c-0.9,7.9,0.5,15.9,4,22C318.3,137,324.6,141.1,331.5,141.1L331.5,141.1z M325.2,109.8L325.2,109.8
		c1-8.7,6.3-14.4,9.3-14.4c2,0,3.7,2.7,4.1,3.5c1.9,3.3,2.7,8.1,2.1,12.8c-1,8.7-6.3,14.4-9.3,14.4c-2,0-3.7-2.7-4.1-3.5
		C325.5,119.3,324.7,114.5,325.2,109.8z"/>
	<path class="st0" d="M72.4,449.9c0,4.1,3.4,7.5,7.5,7.5s7.5-3.4,7.5-7.5c0-7.7,6.2-13.9,13.9-13.9s13.9,6.3,13.9,13.9
		c0,7.7-6.2,13.9-13.9,13.9c-4.1,0-7.5,3.4-7.5,7.5s3.4,7.5,7.5,7.5c15.9,0,28.9-13,28.9-28.9s-13-28.9-28.9-28.9
		S72.4,433.9,72.4,449.9L72.4,449.9z"/>
	<path class="st0" d="M472.7,181c0-4.1-3.4-7.5-7.5-7.5H458V59.1c0-17.6-13.3-32.2-30.4-34.2C422,16.9,408.4,0,391.9,0
		c-17.9,0-32.5,14.6-32.5,32.6s14.6,32.6,32.5,32.6c16.6,0,30.3-17.1,35.8-25c8.7,1.9,15.3,9.7,15.3,19v114.4h-7.8
		c-4.1,0-7.5,3.4-7.5,7.5c0,69.8-56.7,126.7-126.4,126.7c-47.1,0-90-26-112-67.9c-1.9-3.7-6.5-5.1-10.1-3.2
		c-3.7,1.9-5.1,6.5-3.2,10.1c24.6,46.8,72.6,75.9,125.2,75.9c75.5,0,137.3-59.5,141.2-134.2h15c-3.9,82.9-72.5,149.2-156.2,149.2
		S148.9,271.4,145,188.5h15c0.5,9,1.8,17.9,3.9,26.5c1,4,5.1,6.5,9.1,5.5s6.5-5.1,5.5-9.1c-2.4-9.9-3.7-20.1-3.7-30.4
		c0-4.1-3.4-7.5-7.5-7.5h-8.5V59.1c0-9.3,6.6-17.1,15.3-19c5.5,7.9,19.1,25,35.8,25c17.9,0,32.5-14.6,32.5-32.6S227.9,0,210,0
		c-16.5,0-30.1,16.9-35.7,24.9c-17.1,2-30.4,16.6-30.4,34.2v114.4h-6.5c-4.1,0-7.5,3.4-7.5,7.5c0,92.2,72.9,167.6,163.9,171.6v101.8
		c0,23.5-19.1,42.6-42.5,42.6s-42.5-19.1-42.5-42.6v-59.1c0-31.7-25.8-57.6-57.5-57.6c-29.3,0-53.5,22.1-57,50.5
		c-30.9,3.5-54.9,29.8-54.9,61.7c0,34.2,27.8,62.1,62,62.1s62-27.9,62-62.1c0-31.5-23.5-57.6-53.9-61.6
		c3.3-20.2,20.9-35.6,41.9-35.6c23.4,0,42.5,19.1,42.5,42.6v59.1c0,31.7,25.8,57.6,57.5,57.6s57.5-25.8,57.5-57.6V352.6
		C399.8,348.6,472.7,273.2,472.7,181L472.7,181z M391.9,50.1c-9.7,0-17.5-7.9-17.5-17.6S382.2,15,391.9,15
		c8.3,0,17.8,10.7,22.7,17.6C409.3,40,399.8,50.1,391.9,50.1z M210,15c9.7,0,17.5,7.9,17.5,17.6s-7.9,17.6-17.5,17.6
		c-8.3,0-17.7-10.7-22.7-17.6C192.2,25.7,201.7,15,210,15z M148.3,449.9c0,26-21.1,47.1-47,47.1s-47-21.1-47-47.1s21.1-47.1,47-47.1
		S148.3,423.9,148.3,449.9z"/>
</g>
</svg>
