<?xml version="1.0" encoding="utf-8"?>
<!-- Generator: Adobe Illustrator 27.6.1, SVG Export Plug-In . SVG Version: 6.00 Build 0)  -->
<svg version="1.1" id="Layer_1" xmlns="http://www.w3.org/2000/svg" xmlns:xlink="http://www.w3.org/1999/xlink" x="0px" y="0px"
	 viewBox="0 0 512 512" style="enable-background:new 0 0 512 512;" xml:space="preserve">
<style type="text/css">
	.st0{fill:#461483;}
</style>
<g>
	<path class="st0" d="M92,56.9c-26.4,0-47.8,21.4-47.9,47.8c0,23.7,17.4,43.9,40.9,47.3v25.3H71c-3.9,0-7,3.1-7,7c0,0,0,0,0,0V422
		c0.5,15.5,13.4,27.6,28.8,27.2c14.8-0.4,26.7-12.3,27.2-27.2V184.3c0-3.9-3.1-7-7-7c0,0,0,0,0,0H99V152
		c26.1-3.8,44.2-28.1,40.3-54.3C135.9,74.3,115.8,56.9,92,56.9L92,56.9z M106,422c-0.3,7.7-6.8,13.7-14.6,13.4
		c-7.3-0.3-13.1-6.1-13.4-13.4V191.3h28V422z M92,138.6c-18.7,0-33.8-15.2-33.8-33.8C58.2,86,73.4,70.9,92,70.9s33.8,15.2,33.8,33.8
		l0,0C125.9,123.4,110.7,138.6,92,138.6z"/>
	<path class="st0" d="M327.7,174.9c-41.3-0.2-80.6,18.1-107.1,49.8v-40.5c0-3.9-3.1-7-7-7h-14v-75.6c0-1.9-0.7-3.6-2-4.9l-30.9-30.9
		c-2.7-2.7-7.2-2.7-9.9,0c-2.7,2.7-2.7,7.2,0,9.9l28.9,28.9v72.7h-14c-3.9,0-7,3.1-7,7V422c0,15.5,12.5,28,28,28s28-12.5,28-28
		v-16.7c26.5,31.7,65.8,50,107.1,49.8c77.4-0.4,139.8-63.5,139.3-140.8C466.7,237.5,404.5,175.3,327.7,174.9L327.7,174.9z
		 M192.6,436c-7.7,0-14-6.3-14-14V191.3h28v53.4c-25.3,43.5-25.3,97.2,0,140.7V422C206.6,429.7,200.3,436,192.6,436z M327.7,441.1
		c-69.6,0-126.1-56.4-126.1-126.1S258,188.9,327.7,188.9S453.8,245.4,453.8,315l0,0c0.5,69.1-55.1,125.6-124.3,126.1
		C328.9,441.1,328.3,441.1,327.7,441.1L327.7,441.1z"/>
	<path class="st0" d="M428.4,342.6l-8-67.2l-1.5-28.9c-0.2-3.9-3.5-6.8-7.4-6.6c-1,0.1-2.1,0.3-3,0.8l-51.3,28.1
		c-19.7-1.7-39.4-1.7-59.1,0l-51.3-28.1c-3.4-1.9-7.6-0.6-9.5,2.8c-0.5,0.9-0.8,1.9-0.8,3l-1.5,28.9l-8,67.2c0,0.2,0,0.3,0,0.5
		c-0.4,14.4,5.3,28.2,15.6,38.2c18.7,19.7,51.3,31.9,85.2,31.9s66.4-12.2,85.1-31.9c10.3-10,16-23.9,15.6-38.3
		C428.5,342.9,428.4,342.8,428.4,342.6L428.4,342.6z M402.7,371.7c-16.1,17-44.9,27.5-75,27.5s-58.9-10.6-75-27.6
		c-7.5-7.2-11.7-17.2-11.8-27.6l8-67.3c0-0.2,0-0.3,0-0.5l1-18l43.4,23.8c1.2,0.7,2.6,1,4,0.8c20.2-1.9,40.6-1.9,60.8,0
		c1.4,0.1,2.8-0.2,4-0.8l43.4-23.8l0.9,18c0,0.2,0,0.3,0,0.5l8,67.2C414.4,354.5,410.2,364.5,402.7,371.7z"/>
</g>
</svg>
