<?xml version="1.0" encoding="utf-8"?>
<!-- Generator: Adobe Illustrator 27.6.1, SVG Export Plug-In . SVG Version: 6.00 Build 0)  -->
<svg version="1.1" id="Capa_1" xmlns="http://www.w3.org/2000/svg" xmlns:xlink="http://www.w3.org/1999/xlink" x="0px" y="0px"
	 viewBox="0 0 512 512" style="enable-background:new 0 0 512 512;" xml:space="preserve">
<style type="text/css">
	.st0{fill:#461483;}
</style>
<circle class="st0" cx="208.9" cy="188.8" r="11.2"/>
<circle class="st0" cx="164.9" cy="188.8" r="11.2"/>
<circle class="st0" cx="120.9" cy="188.8" r="11.2"/>
<circle class="st0" cx="208.9" cy="126.6" r="11.2"/>
<circle class="st0" cx="164.9" cy="126.6" r="11.2"/>
<circle class="st0" cx="120.9" cy="126.6" r="11.2"/>
<circle class="st0" cx="186.9" cy="157.7" r="11.2"/>
<circle class="st0" cx="142.9" cy="157.7" r="11.2"/>
<path class="st0" d="M232.6,227.3c14.5,0,26.2-12.1,26.2-27V117c0-14.9-11.8-27-26.2-27H97.3C82.8,90,71,102.1,71,117v83.4
	c0,14.9,11.8,27,26.2,27L232.6,227.3z M86,200.4V117c0-6.6,5.1-12,11.3-12h135.4c6.2,0,11.3,5.4,11.3,12v83.4c0,6.6-5.1,12-11.3,12
	H97.2C91,212.4,86,207,86,200.4z"/>
<path class="st0" d="M293.7,200.4V117c0-34.9-27.4-63.2-61.1-63.2H97.2c-13.8,0-27.4,4.9-38.2,13.9c-3.2,2.6-3.6,7.3-1,10.5
	s7.3,3.6,10.5,1c8.2-6.8,18.2-10.5,28.7-10.5h135.4c25.5,0,46.2,21.7,46.2,48.3v83.4c0,26.6-20.7,48.3-46.2,48.3H97.2
	c-25.5,0-46.2-21.7-46.2-48.3V117c0-4.8,0.7-9.6,2-14.1c1.2-4-1.1-8.1-5.1-9.3c-4-1.2-8.1,1.1-9.3,5.1c-1.7,5.9-2.6,12.1-2.6,18.3
	v83.4c0,34.9,27.4,63.2,61.1,63.2h24.2v166.1c0,23.6,19.2,42.7,42.7,42.7h2.3c23.6,0,42.7-19.2,42.7-42.7V391c0-4.1-3.3-7.5-7.5-7.5
	s-7.5,3.3-7.5,7.5v38.6c0,15.3-12.5,27.8-27.8,27.8h-2.3c-15.3,0-27.8-12.5-27.8-27.8V263.6h57.9v95.1c0,4.1,3.3,7.5,7.5,7.5
	s7.5-3.3,7.5-7.5v-95.1h23.4C266.3,263.6,293.7,235.3,293.7,200.4L293.7,200.4z"/>
<path class="st0" d="M305.5,369.8c-15.8,0-28.6,17.3-28.6,38.5s12.8,38.5,28.6,38.5s28.6-17.3,28.6-38.5
	C334.1,387.1,321.2,369.8,305.5,369.8L305.5,369.8z M305.5,431.9c-6.3,0-13.7-10.3-13.7-23.6s7.4-23.6,13.7-23.6
	c6.3,0,13.7,10.3,13.7,23.6S311.8,431.9,305.5,431.9z"/>
<circle class="st0" cx="359.7" cy="238" r="7.9"/>
<path class="st0" d="M416.4,446.8c15.8,0,28.6-17.3,28.6-38.5c0-21.2-12.8-38.5-28.6-38.5s-28.6,17.3-28.6,38.5
	C387.8,429.5,400.7,446.8,416.4,446.8L416.4,446.8z M416.4,384.7c6.3,0,13.7,10.3,13.7,23.6s-7.4,23.6-13.7,23.6
	c-6.3,0-13.7-10.3-13.7-23.6S410.1,384.7,416.4,384.7z"/>
<path class="st0" d="M457.4,458.6c1-1.1,1.9-2.2,2.8-3.4c10.1-12.8,15.6-29.5,15.6-47s-5.5-34.2-15.6-47
	c-9-11.5-21.4-19.1-34.6-21.5c-3-30.8-14.1-60.3-32.2-85.7l-1.4-2l-1.9-30.2c-0.3-4.1-3.8-7.2-7.9-7c-4.1,0.3-7.2,3.8-7,7.9
	l2.1,32.3c0.1,1.4,0.6,2.7,1.4,3.9l2.6,3.7c17.7,24.8,28,53.9,30,84.2c0.2,3.8,3.3,6.8,7.1,7c11.4,0.6,22.4,6.6,30.2,16.6
	c8,10.2,12.4,23.6,12.4,37.8s-4.4,27.6-12.4,37.8c-1.3,1.6-2.6,3.1-4.1,4.6c-2.8,2.7-3.6,6.8-2.2,10.4l10,24.7
	c1.7,4.3-0.1,9.1-4.1,10.8c-1,0.4-2,0.6-3.1,0.6c-3.3,0-6.1-1.9-7.4-5l-9.6-23.6c-1.6-3.8-5.3-6.2-9.5-5.9c-0.8,0.1-1.6,0.1-2.3,0.1
	c-12.1,0-23.8-6.1-32.1-16.6c-8-10.2-12.4-23.6-12.4-37.8s4.4-27.6,12.4-37.8c2.5-3.1,5.3-5.9,8.4-8.3c1.9-1.4,2.9-3.6,2.9-6
	c-0.3-30.4-9.7-59.5-27.3-84.2l-1-1.4c-3.2-4.5-8.5-7.2-14-7.2c-3.8,0-7.3-1.5-9.9-4.3s-3.9-6.4-3.6-10.1l14.6-230
	c0.1-2.2,1.8-4,3.8-4c2.1-0.1,3.9,1.5,4,3.7l11,172.5c0.3,4.1,3.8,7.2,7.9,7c4.1-0.3,7.2-3.8,7-7.9l-11-172.5
	C376.5,7.4,368-0.3,357.7,0c-9.6,0.3-17.6,8.2-18.2,18l-14.6,230c-0.1,1.3-0.1,2.5,0,3.8l-1.7,2.4c-18.3,25.7-29.5,55.7-32.3,86.9
	c-11.2,3.3-21.5,10.3-29.3,20.2c-10.1,12.8-15.6,29.5-15.6,47c0,17.5,5.5,34.2,15.6,47c11.2,14.2,27.1,22.3,43.8,22.3
	c16.7,0,32.6-8.1,43.8-22.3c5.1-6.5,9-14,11.7-22.1c2.6,8.1,6.6,15.6,11.7,22.1c11,14,26.7,22.1,43.2,22.3l8.2,20.1
	c3.5,8.7,11.8,14.3,21.2,14.3c3,0,6-0.6,8.8-1.8c11.5-4.8,17-18.3,12.2-30.1L457.4,458.6z M380.7,352.9c-2.9,2.5-5.6,5.4-8.1,8.5
	c-5.1,6.5-9,14-11.7,22.1c-2.6-8.1-6.6-15.6-11.7-22.1c-3.8-4.9-8.2-9-13.1-12.4c1.5-23.3,9.1-45.7,22.2-65.1
	C372.1,304.4,379.8,328.1,380.7,352.9L380.7,352.9z M337.5,446.1c-8.3,10.6-20,16.6-32.1,16.6c-12.1,0-23.8-6.1-32.1-16.6
	c-8-10.2-12.4-23.6-12.4-37.8s4.4-27.6,12.4-37.8c6.8-8.7,16-14.4,25.8-16.1c3.4-0.6,6-3.4,6.2-6.9c1.7-28.3,10.8-55.5,26.3-79.3
	c0.3,0.3,0.6,0.7,0.9,1c3.4,3.6,7.7,6.3,12.4,7.7c-14.7,22.6-23,48.5-23.9,75.6c-0.1,2.7,1.3,5.3,3.7,6.7c4.8,2.8,9.1,6.6,12.8,11.3
	c8,10.2,12.4,23.6,12.4,37.8C350,422.5,345.5,435.9,337.5,446.1L337.5,446.1z"/>
</svg>
