<?xml version="1.0" encoding="utf-8"?>
<!-- Generator: Adobe Illustrator 27.6.1, SVG Export Plug-In . SVG Version: 6.00 Build 0)  -->
<svg version="1.1" id="Layer_1" xmlns="http://www.w3.org/2000/svg" xmlns:xlink="http://www.w3.org/1999/xlink" x="0px" y="0px"
	 viewBox="0 0 511 511" style="enable-background:new 0 0 511 511;" xml:space="preserve">
<style type="text/css">
	.st0{fill:#461483;}
</style>
<path class="st0" d="M279.2,350.9l-4.5-1.6c-3.3-1.2-7.1-0.5-9.8,1.8l-20.2,17l-6.5-13.2c-1.1-2.2-2.9-3.9-5.2-4.8l-4.7-1.9
	c2.8-2.3,5.2-5.1,7.2-8.2c3.9-6.2,6.2-13.1,6.8-20c13.1-1.3,25.6-7.1,35-16.6l1.1-1.1c3.9-3.9,3.9-10.2,0-14.1
	c-3.9-3.9-10.2-3.9-14.1,0l-1.1,1.1c-6.3,6.3-14.6,10.1-23.3,10.9c-2.2-6.3-5.9-12.2-10.9-17.2c-5-5-10.9-8.7-17.3-10.9
	c0.8-8.8,4.6-17,10.9-23.3l1.1-1.1c3.9-3.9,3.9-10.2,0-14.1c-3.9-3.9-10.2-3.9-14.1,0l-1.1,1.1c-9.5,9.5-15.3,21.9-16.6,35
	c-6.9,0.7-13.7,2.9-20,6.8c-3.2,2-5.9,4.4-8.2,7.2l-1.9-4.7c-0.9-2.3-2.6-4.1-4.8-5.2l-13.2-6.5l17-20.2c2.3-2.7,3-6.4,1.8-9.8
	l-1.6-4.5c-1.8-5.2-7.5-7.9-12.7-6.1c-4.9,1.7-7.6,6.9-6.4,11.8l-21.6,25.6c-2,2.3-2.8,5.5-2.1,8.5c0.6,3,2.6,5.5,5.4,6.9l18.7,9.2
	c-6.1-1.6-12.5-2.2-18.9-1.8c-3.9,0.3-7.7,0.8-11.5,1.6l-8.3-8.3c-2.2-2.2-5.4-3.3-8.6-2.8l-14.4,2.2l3.2-15.3l0.5-0.1
	c5.3-1.5,8.5-6.9,7-12.3c-1.5-5.3-6.9-8.5-12.3-7l-6.4,1.7c-3.6,1-6.4,3.9-7.1,7.6l-7.5,35.3c-0.7,3.2,0.3,6.5,2.5,8.9
	c2.2,2.4,5.5,3.5,8.8,3l15-2.3c-6.3,3.8-12.2,8.3-17.5,13.6c-4,4-7.7,8.1-11.2,12.4l-2.5-2.5c-2.5-2.5-6-3.5-9.4-2.6l-21.9,5.3
	l4.2-20.6c0.3-1.4,0.3-2.9-0.1-4.4l-2.9-11.7c-1.3-5.4-6.7-8.6-12.1-7.3c-5.4,1.3-8.6,6.7-7.3,12.1l2.3,9.5l-4.8,23.5
	C0.2,332.2,2,338,6.1,342c4.1,4,9.9,5.5,15.5,4.2l21.5-5.2l0.9,0.9c-15,24.4-23.2,52.5-23.3,81.9l0,13.3c0,9,2.2,18,6.5,25.9
	c5,9.3,12.6,16.9,21.9,21.9v0c7.9,4.2,16.8,6.5,25.7,6.5H75l13.3,0c29.4-0.1,57.5-8.2,81.9-23.3l0.9,0.9l-5.2,21.5
	c-1.4,5.6,0.2,11.4,4.2,15.5c4,4.1,9.7,5.9,15.3,4.8l22.5-4.6l8.7,4c1.3,0.6,2.8,0.9,4.1,0.9c3.8,0,7.4-2.2,9.1-5.8
	c2.3-5,0.1-10.9-4.9-13.2l-11.7-5.3c-1.9-0.9-4.1-1.1-6.1-0.7l-20.6,4.2l5.3-21.9c0.8-3.4-0.2-7-2.6-9.4l-2.5-2.5
	c4.3-3.5,8.5-7.2,12.4-11.2c5.3-5.3,9.8-11.2,13.6-17.5l-2.3,15c-0.5,3.2,0.6,6.5,3,8.8c1.9,1.8,4.3,2.7,6.8,2.7
	c0.7,0,1.4-0.1,2.1-0.2l35.3-7.5c3.7-0.8,6.6-3.5,7.6-7.1l1.7-6.4c1.5-5.3-1.7-10.8-7-12.3c-5.3-1.5-10.8,1.7-12.3,7l-0.1,0.5
	l-15.3,3.2l2.2-14.4c0.5-3.1-0.6-6.3-2.8-8.6l-8.3-8.3c0.8-3.8,1.3-7.6,1.6-11.5c0.5-6.4-0.2-12.8-1.8-18.9l9.2,18.6
	c1.4,2.8,3.9,4.7,6.9,5.4c0.7,0.1,1.4,0.2,2,0.2c2.3,0,4.6-0.8,6.4-2.3l25.6-21.6c4.9,1.2,10.1-1.5,11.8-6.4
	C287.1,358.5,284.4,352.8,279.2,350.9z M176,303.9c0.5-4.3,2.9-8.2,6.6-10.5c4.3-2.7,9.1-4,13.9-4c6.7,0,13.4,2.6,18.4,7.7
	c8.7,8.7,10.2,21.9,3.7,32.3c-2.3,3.7-6.1,6.1-10.5,6.6c-4.3,0.5-8.6-1-11.7-4.1l-16.3-16.3C177,312.5,175.5,308.2,176,303.9z
	 M185,431c-25.9,25.9-60.2,40.2-96.8,40.3l-13.3,0c-5.7,0-11.3-1.4-16.3-4.1c-5.9-3.2-10.6-7.9-13.8-13.8c-2.7-5-4.1-10.7-4.1-16.3
	l0-13.3c0.1-36.6,14.4-71,40.3-96.8c11.7-11.7,27.3-18.9,43.8-20.1c10.8-0.8,21.5,3.2,29.2,10.8l11.9,11.9c0,0,0,0,0,0l16.3,16.3
	l11.9,11.9c7.7,7.7,11.6,18.3,10.8,29.2C203.9,403.7,196.7,419.2,185,431z"/>
<path class="st0" d="M73.9,414.2c-3.9-3.9-10.2-3.9-14.1,0c-3.9,3.9-3.9,10.2,0,14.1l23.9,23.9c1.9,1.9,4.5,2.9,7.1,2.9
	s5.1-1,7.1-2.9c3.9-3.9,3.9-10.2,0-14.1L73.9,414.2z"/>
<path class="st0" d="M102.3,378.4c-3.9-3.9-10.2-3.9-14.1,0c-3.9,3.9-3.9,10.2,0,14.1l31.3,31.3c1.9,1.9,4.5,2.9,7.1,2.9
	s5.1-1,7.1-2.9c3.9-3.9,3.9-10.2,0-14.1L102.3,378.4z"/>
<path class="st0" d="M132.9,344.9c-3.9-3.9-10.2-3.9-14.1,0c-3.9,3.9-3.9,10.2,0,14.1l34.2,34.2c1.9,1.9,4.5,2.9,7.1,2.9
	s5.1-1,7.1-2.9c3.9-3.9,3.9-10.2,0-14.1L132.9,344.9z"/>
<path class="st0" d="M462.1,235.3C462.1,235.3,462.1,235.3,462.1,235.3c-4,3.9-4,10.2-0.2,14.1c1.9,2,4.5,3,7.1,3c2.5,0,5.1-1,7-2.9
	c3.9-3.8,4-10.2,0.2-14.1C472.4,231.5,466.1,231.4,462.1,235.3z"/>
<path class="st0" d="M511.6,100.4L507,77.9l4-8.7c2.3-5,0.1-10.9-4.9-13.2c-5-2.3-10.9-0.1-13.2,4.9l-5.3,11.7
	c-0.9,1.9-1.1,4.1-0.7,6.1l4.2,20.6L469.1,94c-3.4-0.8-7,0.2-9.4,2.6l-2.5,2.5c-3.5-4.3-7.2-8.5-11.2-12.4
	c-5.3-5.3-11.2-9.8-17.5-13.6l15,2.3c3.2,0.5,6.5-0.6,8.8-3c2.2-2.4,3.2-5.7,2.5-8.9l-7.5-35.3c-0.8-3.7-3.5-6.6-7.1-7.6l-6.4-1.7
	c-5.3-1.5-10.8,1.7-12.3,7c-1.5,5.3,1.7,10.8,7,12.3l0.5,0.1l3.2,15.3l-14.4-2.2c-3.1-0.5-6.3,0.6-8.6,2.8l-8.3,8.3
	c-3.8-0.8-7.6-1.3-11.5-1.6c-6.4-0.5-12.8,0.2-18.9,1.8l18.7-9.2c2.7-1.4,4.7-3.9,5.4-6.9s-0.2-6.1-2.1-8.5l-21.6-25.6
	c1.2-4.9-1.5-10.1-6.4-11.8c-5.2-1.8-10.9,0.9-12.7,6.1l-1.6,4.5c-1.2,3.3-0.5,7.1,1.8,9.8l17,20.2l-13.2,6.5
	c-2.2,1.1-3.9,2.9-4.8,5.2l-1.9,4.7c-2.3-2.8-5.1-5.2-8.2-7.2c-6.2-3.9-13.1-6.2-20-6.8c-1.3-13.1-7.1-25.6-16.6-35l-1.1-1.1
	c-3.9-3.9-10.2-3.9-14.1,0c-3.9,3.9-3.9,10.2,0,14.1l1.1,1.1c6.3,6.3,10.1,14.6,10.9,23.3c-6.3,2.2-12.2,5.9-17.3,10.9
	c-5,5-8.7,10.9-10.9,17.2c-8.7-0.8-17-4.6-23.3-10.9l-1.1-1.1c-3.9-3.9-10.2-3.9-14.1,0c-3.9,3.9-3.9,10.2,0,14.1l1.1,1.1
	c9.5,9.5,21.9,15.3,35,16.6c0.7,6.9,2.9,13.7,6.8,20c2,3.2,4.4,5.9,7.2,8.2l-4.7,1.9c-2.3,0.9-4.1,2.6-5.2,4.8l-6.5,13.2l-20.2-17
	c-2.7-2.3-6.4-3-9.8-1.8l-4.5,1.6c-5.2,1.8-7.9,7.5-6.1,12.7c1.7,4.9,6.9,7.6,11.8,6.4l25.6,21.6c1.8,1.5,4.1,2.3,6.4,2.3
	c0.7,0,1.4-0.1,2-0.2c3-0.6,5.5-2.6,6.9-5.4l9.2-18.6c-1.6,6.1-2.2,12.4-1.8,18.9c0.3,3.9,0.8,7.7,1.6,11.5l-8.3,8.3
	c-2.2,2.2-3.3,5.4-2.8,8.6l2.2,14.4l-15.3-3.2l-0.1-0.5c-1.4-5.3-6.9-8.5-12.3-7c-5.3,1.5-8.5,6.9-7,12.3l1.7,6.4
	c1,3.6,3.9,6.4,7.6,7.1l35.3,7.5c0.7,0.1,1.4,0.2,2.1,0.2c2.5,0,5-1,6.8-2.7c2.4-2.2,3.5-5.5,3-8.8l-2.3-15
	c3.8,6.3,8.3,12.2,13.6,17.5c4,4,8.1,7.7,12.4,11.2l-2.5,2.5c-2.5,2.5-3.5,6-2.6,9.4l5.3,21.9l-20.6-4.2c-1.4-0.3-2.9-0.3-4.4,0.1
	l-11.7,2.9c-5.4,1.3-8.6,6.7-7.3,12.1c1.3,5.4,6.7,8.6,12.1,7.3l9.5-2.3l23.5,4.8c1.1,0.2,2.2,0.3,3.3,0.3c4.5,0,8.8-1.8,12-5.1
	c4-4.1,5.5-9.9,4.2-15.5l-5.2-21.5l0.9-0.9c24.4,15,52.5,23.2,81.9,23.3h0c5.5,0,10-4.4,10-9.9c0-5.5-4.4-10-9.9-10
	c-36.6-0.1-71-14.4-96.8-40.3c-11.7-11.7-18.9-27.3-20.1-43.8c-0.8-10.8,3.2-21.5,10.8-29.2l11.9-11.9c0,0,0,0,0,0l16.3-16.3
	c0,0,0,0,0,0l11.9-11.9c7.7-7.7,18.3-11.6,29.2-10.8c16.5,1.2,32.1,8.3,43.8,20.1c25.9,25.9,40.2,60.2,40.3,96.8
	c0,5.5,4.5,9.9,10,9.9h0c5.5,0,10-4.5,9.9-10c-0.1-29.4-8.2-57.5-23.3-81.9l0.9-0.9l21.5,5.2c5.6,1.4,11.4-0.2,15.5-4.2
	C510.9,111.8,512.7,106.1,511.6,100.4z M298,70.9c5.1-5.1,11.7-7.7,18.5-7.7c4.8,0,9.6,1.3,13.9,4c3.7,2.3,6.1,6.1,6.6,10.5
	c0.5,4.3-1,8.6-4.1,11.7l-16.4,16.4c-3.1,3.1-7.4,4.6-11.7,4.1c-4.3-0.5-8.2-2.9-10.5-6.6C287.8,92.8,289.3,79.5,298,70.9z"/>
<path class="st0" d="M438.3,186.8l-24.4,24.4c-3.9,3.9-3.9,10.2,0,14.1c1.9,1.9,4.5,2.9,7.1,2.9c2.6,0,5.1-1,7.1-2.9l24.4-24.4
	c3.9-3.9,3.9-10.2,0-14.1C448.5,182.9,442.2,182.9,438.3,186.8z"/>
<path class="st0" d="M386,200.9c2.6,0,5.1-1,7.1-2.9l32-32c3.9-3.9,3.9-10.2,0-14.1c-3.9-3.9-10.2-3.9-14.1,0l-32,32
	c-3.9,3.9-3.9,10.2,0,14.1C380.9,199.9,383.5,200.9,386,200.9z"/>
<path class="st0" d="M395.4,119.2c-3.9-3.9-10.2-3.9-14.1,0l-35,35c-3.9,3.9-3.9,10.2,0,14.1c1.9,1.9,4.5,2.9,7.1,2.9
	c2.6,0,5.1-1,7.1-2.9l35-35C399.3,129.4,399.3,123.1,395.4,119.2z"/>
</svg>
