<?xml version="1.0" encoding="utf-8"?>
<!-- Generator: Adobe Illustrator 27.6.1, SVG Export Plug-In . SVG Version: 6.00 Build 0)  -->
<svg version="1.1" id="Capa_1" xmlns="http://www.w3.org/2000/svg" xmlns:xlink="http://www.w3.org/1999/xlink" x="0px" y="0px"
	 viewBox="0 0 512 512" style="enable-background:new 0 0 512 512;" xml:space="preserve">
<style type="text/css">
	.st0{fill:#461483;}
</style>
<g>
	<g>
		<g>
			<g>
				<path class="st0" d="M238.4,176.6c-8.3,0-16.3-3.8-21.5-10.6c-6.7-8.9-10.2-19.4-10-30.6c0.5-26.8,22.7-48.4,49.6-48.1
					c26.8,0.3,48.5,22.3,48.5,49c0,10.4-3.2,20.4-9.3,28.8c-6.6,9.1-18.5,13.1-29.6,9.9c-2.9-0.8-6.1-1.3-9.4-1.3
					c-3.6,0-7.1,0.5-10.2,1.5C243.9,176.2,241.1,176.6,238.4,176.6z M256,102.4c-18.5,0-33.7,14.9-34.1,33.4
					c-0.1,7.7,2.2,15.1,6.9,21.2c3,4,8.3,5.6,13.2,4.1c4.6-1.4,9.5-2.2,14.7-2.2c4.7,0,9.2,0.6,13.5,1.8c5.2,1.5,10.4-0.2,13.4-4.3
					c4.2-5.8,6.5-12.7,6.5-20c0-18.6-15.1-33.8-33.7-34C256.3,102.4,256.1,102.4,256,102.4z"/>
			</g>
		</g>
		<g>
			<g>
				<path class="st0" d="M198.9,106.2c-6.1,0-12.5-2.6-17.5-7.6c-4.2-4.2-6.8-9.5-7.5-15c-0.7-6,1.2-11.8,5.1-15.7l0,0l0,0
					c4-4,9.7-5.8,15.7-5.1c5.5,0.6,10.8,3.3,15,7.5c9.1,9.1,10.2,22.9,2.3,30.7C208.6,104.5,203.9,106.2,198.9,106.2z M192.3,77.7
					c-0.8,0-1.9,0.2-2.6,0.9l0,0c-1,1-0.9,2.5-0.8,3.4c0.2,2.1,1.4,4.3,3.2,6.1c3.4,3.4,7.8,4,9.5,2.3s1-6.1-2.3-9.5
					c-1.8-1.8-4-2.9-6.1-3.2C192.8,77.7,192.6,77.7,192.3,77.7z M184.4,73.3L184.4,73.3L184.4,73.3z"/>
			</g>
			<g>
				<path class="st0" d="M234,81.5c-9,0-17.7-6.8-20.9-17.1c-3.8-12.3,1.6-25,12.2-28.3c10.6-3.3,22.3,4,26.1,16.3
					s-1.6,25-12.2,28.3C237.4,81.2,235.7,81.5,234,81.5z M230.5,50.3c-0.3,0-0.5,0-0.8,0.1c-2.3,0.7-3.8,4.9-2.3,9.5
					c1.4,4.6,5,7.2,7.3,6.5c2.3-0.7,3.8-4.9,2.3-9.5C235.7,52.8,232.7,50.3,230.5,50.3z"/>
			</g>
		</g>
		<g>
			<g>
				<path class="st0" d="M313.1,106.3c-5.1,0-9.8-1.9-13.3-5.3c-4-4-5.8-9.7-5.1-15.7c0.6-5.5,3.3-10.8,7.5-15l0,0
					c9.1-9.1,22.9-10.2,30.7-2.3c7.8,7.8,6.8,21.6-2.4,30.7c-4.2,4.2-9.5,6.8-15,7.5C314.8,106.2,313.9,106.3,313.1,106.3z
					 M312.8,80.9c-1.8,1.8-2.9,4-3.2,6.1c-0.1,0.9-0.1,2.4,0.8,3.4c1,1,2.5,0.9,3.4,0.8c2.1-0.2,4.3-1.4,6.1-3.2
					c3.4-3.4,4-7.8,2.4-9.5C320.6,76.9,316.2,77.5,312.8,80.9L312.8,80.9z"/>
			</g>
			<g>
				<path class="st0" d="M278,81.5c-1.7,0-3.5-0.3-5.2-0.8c-10.6-3.3-16-16-12.2-28.3c1.8-5.7,5.2-10.5,9.8-13.6
					c5-3.4,11-4.4,16.3-2.8c10.6,3.3,16,16,12.2,28.3C295.7,74.7,287,81.5,278,81.5z M281.5,50.3c-1,0-2,0.6-2.6,0.9
					c-1.7,1.2-3.2,3.3-3.9,5.7c-1.4,4.6,0,8.8,2.3,9.5s5.9-1.9,7.3-6.5s0-8.8-2.3-9.5C282.1,50.3,281.8,50.3,281.5,50.3z"/>
			</g>
		</g>
	</g>
	<g>
		<g>
			<path class="st0" d="M170.5,136.5h-23.8c-4.1,0-7.5-3.4-7.5-7.5s3.4-7.5,7.5-7.5h23.8c4.1,0,7.5,3.4,7.5,7.5
				C178,133.1,174.7,136.5,170.5,136.5z"/>
		</g>
		<g>
			<path class="st0" d="M186.8,164.7h-40.1c-4.1,0-7.5-3.4-7.5-7.5s3.4-7.5,7.5-7.5h40.1c4.1,0,7.5,3.4,7.5,7.5
				S191,164.7,186.8,164.7z"/>
		</g>
	</g>
	<g>
		<g>
			<path class="st0" d="M365.3,136.5h-23.8c-4.1,0-7.5-3.4-7.5-7.5s3.4-7.5,7.5-7.5h23.8c4.1,0,7.5,3.4,7.5,7.5
				C372.8,133.1,369.4,136.5,365.3,136.5z"/>
		</g>
		<g>
			<path class="st0" d="M365.3,164.7h-40.1c-4.1,0-7.5-3.4-7.5-7.5s3.4-7.5,7.5-7.5h40.1c4.1,0,7.5,3.4,7.5,7.5
				S369.4,164.7,365.3,164.7z"/>
		</g>
	</g>
	<g>
		<path class="st0" d="M482.1,506.1H29.9c-4.1,0-7.5-3.4-7.5-7.5V235.7c0-4.1,3.4-7.5,7.5-7.5h452.2c4.1,0,7.5,3.4,7.5,7.5v262.9
			C489.6,502.8,486.2,506.1,482.1,506.1z M37.4,491.1h437.2V243.2H37.4V491.1z"/>
	</g>
	<g>
		<path class="st0" d="M482.1,418.8h-45.4c-4.1,0-7.5-3.4-7.5-7.5s3.4-7.5,7.5-7.5h45.4c4.1,0,7.5,3.4,7.5,7.5
			S486.2,418.8,482.1,418.8z"/>
	</g>
	<g>
		<path class="st0" d="M229.1,418.8H164c-4.1,0-7.5-3.4-7.5-7.5s3.4-7.5,7.5-7.5h65.1c4.1,0,7.5,3.4,7.5,7.5
			S233.2,418.8,229.1,418.8z"/>
	</g>
	<g>
		<path class="st0" d="M66.9,418.8h-37c-4.1,0-7.5-3.4-7.5-7.5s3.4-7.5,7.5-7.5h37c4.1,0,7.5,3.4,7.5,7.5S71,418.8,66.9,418.8z"/>
	</g>
	<g>
		<path class="st0" d="M497.8,243.2H14.2C6.4,243.2,0,236.8,0,229v-23.9c0-7.8,6.4-14.2,14.2-14.2h483.6c7.8,0,14.2,6.4,14.2,14.2
			V229C512,236.9,505.6,243.2,497.8,243.2z M15,228.2h482V206H15V228.2z M497.8,206L497.8,206L497.8,206z"/>
	</g>
	<g>
		<path class="st0" d="M504.5,506.1H7.5c-4.1,0-7.5-3.4-7.5-7.5s3.4-7.5,7.5-7.5h497c4.1,0,7.5,3.4,7.5,7.5S508.6,506.1,504.5,506.1
			z"/>
	</g>
	<g>
		<path class="st0" d="M333.5,454.4c-4.1,0-7.5-3.4-7.5-7.5V289.6c0-4.1,3.4-7.5,7.5-7.5s7.5,3.4,7.5,7.5V447
			C341,451.1,337.7,454.4,333.5,454.4z"/>
	</g>
	<g>
		<path class="st0" d="M133.4,450.5c-4.1,0-7.5-3.4-7.5-7.5v-7.1c0-4.1,3.4-7.5,7.5-7.5s7.5,3.4,7.5,7.5v7.1
			C140.9,447.1,137.5,450.5,133.4,450.5z"/>
	</g>
	<g>
		<path class="st0" d="M126.5,336.3H106c-6.5,0-11.8-5.3-11.8-11.8v-6h-6c-6.5,0-11.8-5.3-11.8-11.8v-20.5c0-6.5,5.3-11.8,11.8-11.8
			h6v-6c0-6.5,5.3-11.8,11.8-11.8h20.5c6.5,0,11.8,5.3,11.8,11.8v6h6c6.5,0,11.8,5.3,11.8,11.8v20.5c0,6.5-5.3,11.8-11.8,11.8h-6v6
			C138.3,331,133,336.3,126.5,336.3z M109.2,321.3h14.1v-6c0-6.5,5.3-11.8,11.8-11.8h6v-14.1h-6c-6.5,0-11.8-5.3-11.8-11.8v-6h-14.1
			v6c0,6.5-5.3,11.8-11.8,11.8h-6v14.1h6c6.5,0,11.8,5.3,11.8,11.8C109.2,315.3,109.2,321.3,109.2,321.3z M144.3,289.4L144.3,289.4
			L144.3,289.4z"/>
	</g>
	<g>
		<path class="st0" d="M162.9,506H69.6c-4.1,0-7.5-3.4-7.5-7.5v-26.3c0-4.1,3.4-7.5,7.5-7.5s7.5,3.4,7.5,7.5V491h78.4V365.5H77.1
			v77.8c0,4.1-3.4,7.5-7.5,7.5s-7.5-3.4-7.5-7.5V363c0-6.9,5.6-12.5,12.5-12.5H158c6.9,0,12.5,5.6,12.5,12.5v135.6
			C170.4,502.7,167.1,506,162.9,506z"/>
	</g>
	<g>
		<path class="st0" d="M429.7,454.4H237.4c-7.5,0-13.5-6.1-13.5-13.5V295.6c0-7.5,6.1-13.5,13.5-13.5h132.8c4.1,0,7.5,3.4,7.5,7.5
			s-3.4,7.5-7.5,7.5H238.9v142.4h189.3V297.1h-29c-4.1,0-7.5-3.4-7.5-7.5s3.4-7.5,7.5-7.5h30.5c7.5,0,13.5,6.1,13.5,13.5v145.3
			C443.2,448.4,437.1,454.4,429.7,454.4z"/>
	</g>
	<g>
		<path class="st0" d="M394.7,206H117.3c-4.1,0-7.5-3.4-7.5-7.5V32.3c0-14.6,11.9-26.4,26.4-26.4h26.4c4.1,0,7.5,3.4,7.5,7.5
			s-3.4,7.5-7.5,7.5h-26.4c-6.3,0-11.4,5.1-11.4,11.4V191h262.4V32.3c0-6.3-5.1-11.4-11.4-11.4H191.6c-4.1,0-7.5-3.4-7.5-7.5
			s3.4-7.5,7.5-7.5h184.2c14.6,0,26.4,11.9,26.4,26.4v166.2C402.2,202.7,398.9,206,394.7,206z"/>
	</g>
</g>
</svg>
