<svg width="35" height="35" viewBox="0 0 35 35" fill="none" xmlns="http://www.w3.org/2000/svg">
<g clip-path="url(#clip0_203_10)">
<path d="M22.9802 0C25.1107 0 26.8376 3.30718 26.8376 6.1089C26.8376 8.91061 25.1107 11.1825 22.9802 11.1825C20.8497 11.1825 19.1228 8.91103 19.1228 6.1089C19.1228 3.30676 20.8497 0 22.9802 0ZM8.16242 6.1089C8.16242 8.91103 9.88936 11.1825 12.0198 11.1825C14.1503 11.1825 15.8772 8.91103 15.8772 6.1089C15.8772 3.30676 14.1503 0 12.0198 0C9.88936 0 8.16242 3.30718 8.16242 6.1089ZM5.37601 17.6292C7.18201 16.8931 7.91289 14.4224 7.00783 12.1111C6.10318 9.7997 3.57124 7.66858 1.76524 8.40472C-0.0411683 9.14129 -0.437286 12.4661 0.467361 14.7775C1.37201 17.0889 3.5696 18.3658 5.3756 17.6296L5.37601 17.6292ZM33.2352 8.40472C31.4292 7.66858 28.8972 9.7997 27.9926 12.1111C27.0879 14.4224 27.8184 16.8931 29.6244 17.6292C31.4304 18.3653 33.628 17.0884 34.5327 14.7771C35.4373 12.4657 35.0412 9.14087 33.2352 8.40472ZM30.3388 33.0924C29.1896 34.6302 27.0126 35.3979 25.3104 34.5655C24.2982 34.0706 23.4792 33.0727 22.3625 32.9764C21.3377 32.8882 20.4318 33.5928 19.5765 34.1819C18.9585 34.6076 18.2136 34.995 17.5 35C16.7864 34.995 16.0415 34.6076 15.4235 34.1819C14.5687 33.5928 13.6628 32.8886 12.6375 32.9764C11.5208 33.0722 10.7018 34.0706 9.68966 34.5655C7.98742 35.3979 5.81042 34.6302 4.66118 33.0924C3.51195 31.5546 3.28548 29.4377 3.6993 27.5444C4.11313 25.6516 5.0993 23.9444 6.19007 22.362C8.74671 18.6544 12.8586 14.9124 17.5 14.9124C22.1604 14.9124 26.2537 18.6553 28.8099 22.362C29.9011 23.9444 30.8873 25.6511 31.3007 27.5444C31.7145 29.4377 31.4881 31.5546 30.3388 33.0924Z" fill="#461483"/>
</g>
<defs>
<clipPath id="clip0_203_10">
<rect width="35" height="35" fill="white"/>
</clipPath>
</defs>
</svg>
