<?xml version="1.0" encoding="utf-8"?>
<!-- Generator: Adobe Illustrator 27.6.1, SVG Export Plug-In . SVG Version: 6.00 Build 0)  -->
<svg version="1.1" id="Capa_1" xmlns="http://www.w3.org/2000/svg" xmlns:xlink="http://www.w3.org/1999/xlink" x="0px" y="0px"
	 viewBox="0 0 512 512" style="enable-background:new 0 0 512 512;" xml:space="preserve">
<style type="text/css">
	.st0{fill:#461483;}
</style>
<path class="st0" d="M102.4,273h17.1v17.1h-17.1V273z"/>
<path class="st0" d="M170.7,460.7c14.1,0,25.6-11.5,25.6-25.6c0-14.1-11.5-25.6-25.6-25.6c-14.1,0-25.6,11.5-25.6,25.6
	C145.1,449.3,156.5,460.7,170.7,460.7z M170.7,426.6c4.7,0,8.5,3.8,8.5,8.5c0,4.7-3.8,8.5-8.5,8.5c-4.7,0-8.5-3.8-8.5-8.5
	C162.1,430.4,166,426.6,170.7,426.6z"/>
<path class="st0" d="M59.7,460.7c14.1,0,25.6-11.5,25.6-25.6c0-14.1-11.5-25.6-25.6-25.6S34.1,421,34.1,435.1
	C34.2,449.3,45.6,460.7,59.7,460.7z M59.7,426.6c4.7,0,8.5,3.8,8.5,8.5c0,4.7-3.8,8.5-8.5,8.5s-8.5-3.8-8.5-8.5
	C51.2,430.4,55,426.6,59.7,426.6z"/>
<path class="st0" d="M59.7,494.9c24.4,0,46.4-14.9,55.5-37.6c12.2,30.6,47,45.6,77.6,33.3s45.6-47,33.3-77.6
	c-7.8-19.6-25.4-33.6-46.3-36.9l-34.8-62.7V134c0-19.4-2.3-38.8-6.7-57.7c-4.5-18.9-11.1-37.2-19.8-54.6c-2.1-4.2-7.2-5.9-11.4-3.8
	c-1.7,0.8-3,2.2-3.8,3.8C85.9,56.6,76.9,95,76.8,134v179.5l-36.2,65.1C9.4,389.1-7.4,423,3.1,454.2
	C11.3,478.5,34.1,494.9,59.7,494.9L59.7,494.9z M88.4,382.7l22.6-25.4l25.6,28.8c-9.6,6.7-17,16-21.4,26.9
	C110,400.1,100.5,389.4,88.4,382.7L88.4,382.7z M213.3,435.1c0,23.6-19.1,42.7-42.7,42.7S128,458.7,128,435.1
	c0-23.6,19.1-42.7,42.7-42.7C194.2,392.5,213.3,411.6,213.3,435.1z M93.9,134c0-30.1,5.8-59.8,17.1-87.7c4.5,11,8.1,22.4,10.8,33.9
	c4.2,17.6,6.3,35.7,6.3,53.8v181.7c0,1.4,0.4,2.9,1.1,4.1l31.4,56.5c-2.7,0.5-5.4,1.1-8.1,2l-58.5-65.8V134z M87,330.3l12.6,14.1
	l-28.5,32c-3-0.6-6.1-0.9-9.2-1L87,330.3z M59.7,392.5c23.6,0,42.7,19.1,42.7,42.7c0,23.6-19.1,42.7-42.7,42.7s-42.7-19.1-42.7-42.7
	C17.1,411.6,36.2,392.5,59.7,392.5z"/>
<path class="st0" d="M308,212.1c13.3-21.5,20.7-49.9,20.7-79.9s-7.3-58.4-20.7-79.9C293.9,29.5,274.7,17,253.9,17
	S214,29.5,199.9,52.3c-13.3,21.5-20.7,49.9-20.7,79.9s7.3,58.4,20.7,79.9c5.4,9,12.4,16.9,20.7,23.4l7.7,46.3l-5.9,58.7
	c-1.7,17.4,11,33,28.4,34.7s33-11,34.7-28.4c0.2-2.1,0.2-4.2,0-6.3l-5.9-58.7l7.7-46.3C295.6,229.1,302.6,221.1,308,212.1L308,212.1
	z M264.8,353.5c-5.4,6-14.7,6.5-20.7,1c-3.4-3.1-5.2-7.7-4.7-12.3l6-59.9c0.1-0.7,0.1-1.5-0.1-2.3l-5.8-34.8
	c9.4,2.8,19.5,2.8,28.9,0l-5.8,34.8c-0.1,0.7-0.1,1.5-0.1,2.3l6,59.9C268.9,346.4,267.6,350.5,264.8,353.5L264.8,353.5z
	 M253.9,230.3c-14.6,0-28.7-9.7-39.6-27.2c-11.7-18.8-18.1-44-18.1-70.9s6.4-52.1,18.1-70.9c10.9-17.5,24.9-27.2,39.6-27.2
	c14.6,0,28.7,9.7,39.6,27.2c11.7,18.8,18.1,44,18.1,70.9s-6.4,52.1-18.1,70.9C282.6,220.7,268.6,230.3,253.9,230.3z"/>
<path class="st0" d="M228.3,136.5h17.1v17.1h-17.1V136.5z"/>
<path class="st0" d="M228.3,170.6h17.1v17.1h-17.1V170.6z"/>
<path class="st0" d="M228.3,68.2h17.1v17.1h-17.1V68.2z"/>
<path class="st0" d="M228.3,102.3h17.1v17.1h-17.1V102.3z"/>
<path class="st0" d="M262.5,68.2h17.1v17.1h-17.1V68.2z"/>
<path class="st0" d="M262.5,102.3h17.1v17.1h-17.1V102.3z"/>
<path class="st0" d="M262.5,170.6h17.1v17.1h-17.1V170.6z"/>
<path class="st0" d="M262.5,136.5h17.1v17.1h-17.1V136.5z"/>
<path class="st0" d="M460.8,303.8V42.6c0-14.1-11.5-25.6-25.6-25.6h-68.3c-4.7,0-8.5,3.8-8.5,8.5s3.8,8.5,8.5,8.5h42.7v17.1h-42.7
	c-4.7,0-8.5,3.8-8.5,8.5s3.8,8.5,8.5,8.5h42.7v17.1h-42.7c-4.7,0-8.5,3.8-8.5,8.5c0,4.7,3.8,8.5,8.5,8.5h42.7v17.1h-42.7
	c-4.7,0-8.5,3.8-8.5,8.5s3.8,8.5,8.5,8.5h42.7v17.1h-42.7c-4.7,0-8.5,3.8-8.5,8.5s3.8,8.5,8.5,8.5h42.7v17.1h-42.7
	c-4.7,0-8.5,3.8-8.5,8.5c0,4.7,3.8,8.5,8.5,8.5h42.7v17.1h-42.7c-4.7,0-8.5,3.8-8.5,8.5s3.8,8.5,8.5,8.5h42.7v17.1h-42.7
	c-4.7,0-8.5,3.8-8.5,8.5s3.8,8.5,8.5,8.5h42.7v17.1c-56.6,0-102.5,45.8-102.5,102.4c0,56.6,45.8,102.5,102.4,102.5
	c56.6,0,102.5-45.8,102.5-102.4C512,356,492.5,322.1,460.8,303.8z M426.7,34.1h8.5c4.7,0,8.5,3.8,8.5,8.5v253.3
	c-5.5-2-11.3-3.4-17.1-4.4V34.1z M409.6,477.8c-47.1,0-85.3-38.2-85.3-85.3s38.2-85.3,85.3-85.3s85.3,38.2,85.3,85.3
	C494.9,439.6,456.7,477.7,409.6,477.8z"/>
<path class="st0" d="M434.1,402.1c-4.1-13.5-18.4-21.2-31.9-17.1c-8.2,2.5-14.6,8.9-17.1,17.1c-13.5,4.1-21.2,18.4-17.1,31.9
	c3.3,10.8,13.2,18.2,24.5,18.2h0.4h33.7c14.1,0,25.6-11.5,25.6-25.6C452.3,415.3,444.9,405.4,434.1,402.1L434.1,402.1z M426.7,435.1
	h-33.8h-0.2c-1.4,0-2.8-0.3-4-0.9c-4.2-2.1-5.9-7.2-3.8-11.4c1.5-2.9,4.4-4.7,7.6-4.7c4.7,0,8.5-3.8,8.5-8.5v-0.1
	c0-4.7,3.9-8.5,8.6-8.5c4.7,0,8.5,3.9,8.5,8.6c0,4.7,3.8,8.5,8.5,8.5c4.7,0,8.5,3.8,8.5,8.5C435.2,431.3,431.4,435.1,426.7,435.1z"
	/>
<path class="st0" d="M409.6,375.4c11.8,0,21.3-9.6,21.3-21.3c0-11.8-9.6-21.3-21.3-21.3c-11.8,0-21.3,9.6-21.3,21.3
	C388.3,365.8,397.8,375.4,409.6,375.4z M409.6,349.8c2.4,0,4.3,1.9,4.3,4.3c0,2.4-1.9,4.3-4.3,4.3c-2.4,0-4.3-1.9-4.3-4.3
	C405.3,351.7,407.2,349.8,409.6,349.8z"/>
<path class="st0" d="M384,379.7c0-11.8-9.6-21.3-21.3-21.3c-11.8,0-21.3,9.6-21.3,21.3c0,11.8,9.6,21.3,21.3,21.3
	C374.4,401,384,391.4,384,379.7z M362.7,383.9c-2.4,0-4.3-1.9-4.3-4.3c0-2.4,1.9-4.3,4.3-4.3c2.4,0,4.3,1.9,4.3,4.3
	C366.9,382,365,383.9,362.7,383.9z"/>
<path class="st0" d="M435.2,379.7c0,11.8,9.6,21.3,21.3,21.3c11.8,0,21.3-9.6,21.3-21.3c0-11.8-9.6-21.3-21.3-21.3
	C444.8,358.3,435.2,367.9,435.2,379.7z M460.8,379.7c0,2.4-1.9,4.3-4.3,4.3c-2.4,0-4.3-1.9-4.3-4.3c0-2.4,1.9-4.3,4.3-4.3
	C458.9,375.4,460.8,377.3,460.8,379.7z"/>
</svg>
