<?xml version="1.0" encoding="utf-8"?>
<!-- Generator: Adobe Illustrator 27.6.1, SVG Export Plug-In . SVG Version: 6.00 Build 0)  -->
<svg version="1.1" id="Layer_1" xmlns="http://www.w3.org/2000/svg" xmlns:xlink="http://www.w3.org/1999/xlink" x="0px" y="0px"
	 viewBox="0 0 512 512" style="enable-background:new 0 0 512 512;" xml:space="preserve">
<style type="text/css">
	.st0{fill:#461483;}
</style>
<g id="Page-1">
	<g id="_x30_28---Vet-Location">
		<path id="Shape" class="st0" d="M232.4,494.9h-44.6c-4.7,0-8.5,3.8-8.5,8.5s3.8,8.5,8.5,8.5h136.5c4.7,0,8.5-3.8,8.5-8.5
			s-3.8-8.5-8.5-8.5h-44.6c46.5-40.8,164.1-158.6,164.1-307.2C443.7,84.1,359.7,0,256,0S68.3,84.1,68.3,187.7
			C68.3,336.3,185.8,454.1,232.4,494.9z M85.3,187.7C85.3,93.4,161.7,17,256,17s170.7,76.4,170.7,170.7
			c0,155.8-141.6,280.7-170.7,304.8C226.9,468.5,85.3,343.6,85.3,187.7z"/>
		<path id="Shape_00000110459419554705103980000004278201059200549795_" class="st0" d="M409.6,187.7c0-84.8-68.8-153.6-153.6-153.6
			s-153.6,68.8-153.6,153.6S171.2,341.3,256,341.3C340.8,341.2,409.5,272.5,409.6,187.7z M119.5,187.7
			c0-75.4,61.1-136.5,136.5-136.5s136.5,61.1,136.5,136.5S331.4,324.3,256,324.3C180.6,324.2,119.6,263.1,119.5,187.7z"/>
		<path id="Shape_00000031192483949121821240000015973211355399037847_" class="st0" d="M270.8,285.3c6.6,3,13.8,4.7,21.1,4.9
			c12.3,0.8,23.8-6.1,29-17.2c6.2-16.3,3.1-34.6-8.1-48c-4-5.2-7.5-10.8-10.5-16.7c-9.3-16.7-20.9-37.5-46.3-37.5
			s-37,20.8-46.3,37.5c-3,5.9-6.5,11.4-10.5,16.7c-11.2,13.3-14.3,31.7-8.1,48c5.2,11.2,16.7,18,29,17.3c7.3-0.2,14.5-1.8,21.1-4.9
			c4.6-2.2,9.7-3.5,14.8-3.7C261.1,281.8,266.2,283.1,270.8,285.3L270.8,285.3z M234.9,269.4c-4.6,2.2-9.7,3.5-14.8,3.7
			c-5.6,0.7-11-2.3-13.5-7.4c-3.4-10.2-1.3-21.5,5.7-29.8c4.7-6.1,8.9-12.5,12.4-19.4c10-17.9,17.1-28.8,31.4-28.8
			s21.4,10.9,31.4,28.8c3.5,6.8,7.7,13.3,12.4,19.4c7,8.3,9.1,19.6,5.7,29.8c-2.5,5.1-7.9,8-13.5,7.4c-5.1-0.2-10.2-1.5-14.8-3.7
			c-6.6-3-13.8-4.7-21.1-4.9C248.7,264.7,241.5,266.4,234.9,269.4L234.9,269.4z"/>
		<path id="Shape_00000011730601515558216550000006670003935329610923_" class="st0" d="M215.9,170.2c1.6,0,3.1-0.1,4.7-0.4
			c18.5-3.2,30.4-24.7,26.3-47.9c-4-23.2-22.3-39.4-40.9-36.2c-9.8,2-18,8.5-22.2,17.5c-4.6,9.4-6,20.1-4.1,30.4
			C183.4,154.8,199.1,170.2,215.9,170.2z M199,110.9c1.9-4.2,5.5-7.3,10-8.4c0.6-0.1,1.2-0.2,1.9-0.2c8.5,0,17.1,9.7,19.3,22.5
			c2.4,13.7-3.3,26.6-12.4,28.2c-9.1,1.6-18.8-8.6-21.2-22.3C195.2,124,196.1,117.1,199,110.9z"/>
		<path id="Shape_00000050646151867317289440000003215396309905419157_" class="st0" d="M153.1,224.9c4.7,3.1,10.2,4.8,15.9,4.9
			c2.7,0,5.4-0.4,7.9-1.2c16.5-6.4,24.7-24.9,18.4-41.5c-4.2-17.2-21.5-27.7-38.7-23.7c-16.4,6.5-24.6,24.9-18.4,41.5
			C140.8,213,146,220.1,153.1,224.9z M161.7,179.6c0.9-0.3,1.8-0.4,2.8-0.4c7.1,0.9,12.8,6,14.5,12.9c3.3,7.5,0.1,16.3-7.2,20.1
			c-3.3,0.9-6.7,0.3-9.5-1.7c-3.8-2.6-6.5-6.4-7.8-10.8C151.3,192.2,154.5,183.4,161.7,179.6L161.7,179.6z"/>
		<path id="Shape_00000097466534768529576100000007481553867911148445_" class="st0" d="M291.7,169.8c1.6,0.3,3.1,0.4,4.7,0.4
			c16.9,0,32.5-15.4,36.2-36.6c1.9-10.3,0.5-20.9-4.1-30.3c-4.2-9-12.5-15.5-22.3-17.5c-18.6-3.2-36.9,13-40.9,36.2
			c-1.9,10.3-0.5,21,4.1,30.4C273.7,161.4,281.9,167.9,291.7,169.8L291.7,169.8z M282.1,124.9c2.2-12.7,10.8-22.5,19.3-22.5
			c0.6,0,1.3,0.1,1.9,0.2c4.4,1.1,8.1,4.2,10,8.4c2.9,6.2,3.7,13.1,2.5,19.7c-2.4,13.7-12,23.9-21.2,22.3c-4.4-1.1-8.1-4.2-10-8.4
			C281.7,138.4,280.9,131.5,282.1,124.9L282.1,124.9z"/>
		<path id="Shape_00000097462370615411276780000013889218289170727854_" class="st0" d="M316.7,187.1c-6.3,16.5,2,35,18.4,41.5
			c2.6,0.8,5.3,1.2,7.9,1.2c5.6-0.1,11.2-1.7,15.9-4.9c7.1-4.7,12.4-11.8,14.8-20c6.3-16.5-1.9-35-18.4-41.5
			C338.1,159.3,320.9,169.9,316.7,187.1L316.7,187.1z M333,192.1c2.7-8.8,10.7-14.6,17.3-12.5c7.3,3.8,10.4,12.6,7.2,20.1
			c-1.3,4.4-4.1,8.2-7.8,10.8c-2.7,2-6.2,2.6-9.5,1.7C332.8,208.5,329.7,199.7,333,192.1z"/>
	</g>
</g>
</svg>
