<svg width="130" height="35" viewBox="0 0 130 35" fill="none" xmlns="http://www.w3.org/2000/svg">
<g clip-path="url(#clip0_62_12)">
<path d="M22.9802 0C25.1107 0 26.8376 3.30718 26.8376 6.1089C26.8376 8.91061 25.1107 11.1825 22.9802 11.1825C20.8497 11.1825 19.1228 8.91103 19.1228 6.1089C19.1228 3.30676 20.8497 0 22.9802 0ZM8.16242 6.1089C8.16242 8.91103 9.88936 11.1825 12.0198 11.1825C14.1503 11.1825 15.8772 8.91103 15.8772 6.1089C15.8772 3.30676 14.1503 0 12.0198 0C9.88936 0 8.16242 3.30718 8.16242 6.1089ZM5.37601 17.6292C7.18201 16.8931 7.91289 14.4224 7.00783 12.1111C6.10318 9.7997 3.57124 7.66858 1.76524 8.40472C-0.0411683 9.14129 -0.437286 12.4661 0.467361 14.7775C1.37201 17.0889 3.5696 18.3658 5.3756 17.6296L5.37601 17.6292ZM33.2352 8.40472C31.4292 7.66858 28.8972 9.7997 27.9926 12.1111C27.0879 14.4224 27.8184 16.8931 29.6244 17.6292C31.4304 18.3653 33.628 17.0884 34.5327 14.7771C35.4373 12.4657 35.0412 9.14087 33.2352 8.40472ZM30.3388 33.0924C29.1896 34.6302 27.0126 35.3979 25.3104 34.5655C24.2982 34.0706 23.4792 33.0727 22.3625 32.9764C21.3377 32.8882 20.4318 33.5928 19.5765 34.1819C18.9585 34.6076 18.2136 34.995 17.5 35C16.7864 34.995 16.0415 34.6076 15.4235 34.1819C14.5687 33.5928 13.6628 32.8886 12.6375 32.9764C11.5208 33.0722 10.7018 34.0706 9.68966 34.5655C7.98742 35.3979 5.81042 34.6302 4.66118 33.0924C3.51195 31.5546 3.28548 29.4377 3.6993 27.5444C4.11313 25.6516 5.0993 23.9444 6.19007 22.362C8.74671 18.6544 12.8586 14.9124 17.5 14.9124C22.1604 14.9124 26.2537 18.6553 28.8099 22.362C29.9011 23.9444 30.8873 25.6511 31.3007 27.5444C31.7145 29.4377 31.4881 31.5546 30.3388 33.0924Z" fill="white"/>
</g>
<path d="M59.232 5.344V17H56.848V10.296C56.848 10.1413 56.8507 9.97333 56.856 9.792C56.8667 9.61067 56.8827 9.42667 56.904 9.24L53.808 15.232C53.712 15.4187 53.5813 15.56 53.416 15.656C53.256 15.752 53.072 15.8 52.864 15.8H52.496C52.288 15.8 52.1013 15.752 51.936 15.656C51.776 15.56 51.648 15.4187 51.552 15.232L48.456 9.224C48.472 9.416 48.4853 9.60533 48.496 9.792C48.5067 9.97333 48.512 10.1413 48.512 10.296V17H46.128V5.344H48.192C48.3093 5.344 48.4107 5.34667 48.496 5.352C48.5867 5.35733 48.6667 5.37333 48.736 5.4C48.8053 5.42667 48.8667 5.46933 48.92 5.528C48.9787 5.58133 49.0347 5.65867 49.088 5.76L52.088 11.672C52.1947 11.8747 52.296 12.0853 52.392 12.304C52.4933 12.5227 52.5893 12.7467 52.68 12.976C52.7707 12.7413 52.864 12.512 52.96 12.288C53.0613 12.064 53.168 11.8507 53.28 11.648L56.272 5.76C56.3253 5.65867 56.3787 5.58133 56.432 5.528C56.4907 5.46933 56.5547 5.42667 56.624 5.4C56.6933 5.37333 56.7707 5.35733 56.856 5.352C56.9467 5.34667 57.0507 5.344 57.168 5.344H59.232ZM64.2074 17H61.4874V5.344H64.2074V17ZM74.3121 13.984C74.3761 13.984 74.4401 13.9973 74.5041 14.024C74.5681 14.0453 74.6295 14.0853 74.6881 14.144L75.7601 15.272C75.2908 15.8853 74.7015 16.3493 73.9921 16.664C73.2881 16.9733 72.4535 17.128 71.4881 17.128C70.6028 17.128 69.8081 16.9787 69.1041 16.68C68.4055 16.376 67.8108 15.96 67.3201 15.432C66.8348 14.8987 66.4615 14.2693 66.2001 13.544C65.9388 12.8133 65.8081 12.0213 65.8081 11.168C65.8081 10.2987 65.9495 9.50133 66.2321 8.776C66.5148 8.04533 66.9121 7.416 67.4241 6.888C67.9361 6.36 68.5495 5.94933 69.2641 5.656C69.9788 5.36267 70.7655 5.216 71.6241 5.216C72.0615 5.216 72.4721 5.256 72.8561 5.336C73.2455 5.41067 73.6081 5.51733 73.9441 5.656C74.2801 5.78933 74.5895 5.952 74.8721 6.144C75.1548 6.336 75.4055 6.544 75.6241 6.768L74.7121 7.992C74.6535 8.06667 74.5841 8.136 74.5041 8.2C74.4241 8.25867 74.3121 8.288 74.1681 8.288C74.0721 8.288 73.9815 8.26667 73.8961 8.224C73.8108 8.18133 73.7201 8.13067 73.6241 8.072C73.5281 8.008 73.4215 7.94133 73.3041 7.872C73.1921 7.79733 73.0561 7.73067 72.8961 7.672C72.7415 7.608 72.5575 7.55467 72.3441 7.512C72.1361 7.46933 71.8908 7.448 71.6081 7.448C71.1601 7.448 70.7495 7.53067 70.3761 7.696C70.0081 7.86133 69.6881 8.104 69.4161 8.424C69.1495 8.73867 68.9415 9.128 68.7921 9.592C68.6481 10.0507 68.5761 10.576 68.5761 11.168C68.5761 11.7653 68.6561 12.296 68.8161 12.76C68.9815 13.224 69.2028 13.616 69.4801 13.936C69.7628 14.2507 70.0908 14.4907 70.4641 14.656C70.8375 14.8213 71.2375 14.904 71.6641 14.904C71.9095 14.904 72.1335 14.8933 72.3361 14.872C72.5388 14.8453 72.7281 14.8053 72.9041 14.752C73.0801 14.6933 73.2455 14.6187 73.4001 14.528C73.5548 14.432 73.7121 14.312 73.8721 14.168C73.9361 14.1147 74.0055 14.072 74.0801 14.04C74.1548 14.0027 74.2321 13.984 74.3121 13.984ZM87.1165 5.344V17H84.3965V12.072H79.6605V17H76.9405V5.344H79.6605V10.216H84.3965V5.344H87.1165ZM92.098 17H89.378V5.344H92.098V17ZM99.9468 10.96H104.091V15.88C103.493 16.3173 102.856 16.6347 102.179 16.832C101.507 17.0293 100.803 17.128 100.067 17.128C99.1068 17.128 98.2321 16.9787 97.4427 16.68C96.6588 16.376 95.9868 15.96 95.4268 15.432C94.8668 14.8987 94.4348 14.2693 94.1308 13.544C93.8268 12.8133 93.6748 12.0213 93.6748 11.168C93.6748 10.2987 93.8188 9.50133 94.1068 8.776C94.3948 8.04533 94.8054 7.416 95.3388 6.888C95.8774 6.36 96.5254 5.94933 97.2828 5.656C98.0454 5.36267 98.8961 5.216 99.8348 5.216C100.32 5.216 100.776 5.256 101.203 5.336C101.629 5.416 102.021 5.52533 102.379 5.664C102.741 5.80267 103.072 5.968 103.371 6.16C103.669 6.352 103.936 6.56 104.171 6.784L103.387 7.976C103.264 8.16267 103.104 8.27733 102.907 8.32C102.715 8.36267 102.507 8.31467 102.283 8.176C102.069 8.048 101.867 7.93867 101.675 7.848C101.488 7.752 101.296 7.67467 101.099 7.616C100.901 7.55733 100.693 7.51467 100.475 7.488C100.256 7.46133 100.011 7.448 99.7388 7.448C99.2321 7.448 98.7761 7.53867 98.3708 7.72C97.9654 7.896 97.6188 8.14667 97.3307 8.472C97.0481 8.79733 96.8294 9.18933 96.6748 9.648C96.5201 10.1013 96.4428 10.608 96.4428 11.168C96.4428 11.7867 96.5281 12.336 96.6988 12.816C96.8694 13.296 97.1094 13.7013 97.4188 14.032C97.7334 14.3627 98.1068 14.616 98.5388 14.792C98.9761 14.9627 99.4588 15.048 99.9868 15.048C100.312 15.048 100.605 15.016 100.867 14.952C101.133 14.888 101.392 14.8027 101.643 14.696V12.928H100.491C100.32 12.928 100.187 12.8827 100.091 12.792C99.9948 12.7013 99.9468 12.5867 99.9468 12.448V10.96ZM111.897 12.544L110.817 9.352C110.737 9.14933 110.652 8.912 110.561 8.64C110.471 8.36267 110.38 8.064 110.289 7.744C110.209 8.06933 110.124 8.37067 110.033 8.648C109.943 8.92533 109.857 9.16533 109.777 9.368L108.705 12.544H111.897ZM116.193 17H114.097C113.863 17 113.673 16.9467 113.529 16.84C113.385 16.728 113.276 16.5867 113.201 16.416L112.513 14.384H108.081L107.393 16.416C107.335 16.5653 107.228 16.7013 107.073 16.824C106.924 16.9413 106.737 17 106.513 17H104.401L108.913 5.344H111.681L116.193 17ZM127.288 5.344V17H125.88C125.672 17 125.496 16.968 125.352 16.904C125.214 16.8347 125.075 16.7173 124.936 16.552L119.44 9.6C119.462 9.808 119.475 10.0107 119.48 10.208C119.491 10.4 119.496 10.5813 119.496 10.752V17H117.112V5.344H118.536C118.654 5.344 118.752 5.34933 118.832 5.36C118.912 5.37067 118.984 5.392 119.048 5.424C119.112 5.45067 119.174 5.49067 119.232 5.544C119.291 5.59733 119.358 5.66933 119.432 5.76L124.976 12.76C124.95 12.536 124.931 12.32 124.92 12.112C124.91 11.8987 124.904 11.6987 124.904 11.512V5.344H127.288ZM51.136 26.542L49.6735 22.7525C49.6302 22.6398 49.5847 22.5098 49.537 22.3625C49.4893 22.2108 49.4438 22.0505 49.4005 21.8815C49.3095 22.2325 49.2163 22.525 49.121 22.759L47.6585 26.542H51.136ZM53.762 30H52.787C52.6743 30 52.5833 29.9718 52.514 29.9155C52.4447 29.8592 52.3927 29.7877 52.358 29.701L51.487 27.452H47.3075L46.4365 29.701C46.4105 29.779 46.3607 29.8483 46.287 29.909C46.2133 29.9697 46.1223 30 46.014 30H45.039L48.7635 20.6855H50.0375L53.762 30ZM63.0604 25.346C63.0604 26.0437 62.9499 26.6785 62.7289 27.2505C62.5079 27.8225 62.1959 28.3122 61.7929 28.7195C61.3899 29.1268 60.9045 29.4432 60.3369 29.6685C59.7735 29.8895 59.1495 30 58.4649 30H54.9874V20.6855H58.4649C59.1495 20.6855 59.7735 20.7982 60.3369 21.0235C60.9045 21.2445 61.3899 21.5608 61.7929 21.9725C62.1959 22.3798 62.5079 22.8695 62.7289 23.4415C62.9499 24.0135 63.0604 24.6483 63.0604 25.346ZM61.7669 25.346C61.7669 24.774 61.6889 24.2627 61.5329 23.812C61.3769 23.3613 61.1559 22.98 60.8699 22.668C60.5839 22.356 60.2372 22.1177 59.8299 21.953C59.4225 21.7883 58.9675 21.706 58.4649 21.706H56.2484V28.9795H58.4649C58.9675 28.9795 59.4225 28.8972 59.8299 28.7325C60.2372 28.5678 60.5839 28.3317 60.8699 28.024C61.1559 27.712 61.3769 27.3307 61.5329 26.88C61.6889 26.4293 61.7669 25.918 61.7669 25.346ZM73.483 25.346C73.483 26.0437 73.3725 26.685 73.1515 27.27C72.9305 27.8507 72.6185 28.3512 72.2155 28.7715C71.8125 29.1918 71.3272 29.519 70.7595 29.753C70.1962 29.9827 69.5722 30.0975 68.8875 30.0975C68.2028 30.0975 67.5788 29.9827 67.0155 29.753C66.4522 29.519 65.969 29.1918 65.566 28.7715C65.163 28.3512 64.851 27.8507 64.63 27.27C64.409 26.685 64.2985 26.0437 64.2985 25.346C64.2985 24.6483 64.409 24.0092 64.63 23.4285C64.851 22.8435 65.163 22.3408 65.566 21.9205C65.969 21.4958 66.4522 21.1665 67.0155 20.9325C67.5788 20.6985 68.2028 20.5815 68.8875 20.5815C69.5722 20.5815 70.1962 20.6985 70.7595 20.9325C71.3272 21.1665 71.8125 21.4958 72.2155 21.9205C72.6185 22.3408 72.9305 22.8435 73.1515 23.4285C73.3725 24.0092 73.483 24.6483 73.483 25.346ZM72.1895 25.346C72.1895 24.774 72.1115 24.2605 71.9555 23.8055C71.7995 23.3505 71.5785 22.967 71.2925 22.655C71.0065 22.3387 70.6598 22.096 70.2525 21.927C69.8452 21.758 69.3902 21.6735 68.8875 21.6735C68.3892 21.6735 67.9363 21.758 67.529 21.927C67.1217 22.096 66.7728 22.3387 66.4825 22.655C66.1965 22.967 65.9755 23.3505 65.8195 23.8055C65.6635 24.2605 65.5855 24.774 65.5855 25.346C65.5855 25.918 65.6635 26.4315 65.8195 26.8865C65.9755 27.3372 66.1965 27.7207 66.4825 28.037C66.7728 28.349 67.1217 28.5895 67.529 28.7585C67.9363 28.9232 68.3892 29.0055 68.8875 29.0055C69.3902 29.0055 69.8452 28.9232 70.2525 28.7585C70.6598 28.5895 71.0065 28.349 71.2925 28.037C71.5785 27.7207 71.7995 27.3372 71.9555 26.8865C72.1115 26.4315 72.1895 25.918 72.1895 25.346ZM78.0367 25.515C78.3963 25.515 78.7127 25.4673 78.9857 25.372C79.263 25.2767 79.4948 25.1445 79.6812 24.9755C79.8718 24.8022 80.0148 24.5963 80.1102 24.358C80.2055 24.1197 80.2532 23.8575 80.2532 23.5715C80.2532 22.9778 80.069 22.5142 79.7007 22.1805C79.3367 21.8468 78.782 21.68 78.0367 21.68H76.5417V25.515H78.0367ZM78.0367 20.6855C78.626 20.6855 79.1373 20.7548 79.5707 20.8935C80.0083 21.0278 80.3702 21.2207 80.6562 21.472C80.9422 21.7233 81.1545 22.0267 81.2932 22.382C81.4362 22.7373 81.5077 23.1338 81.5077 23.5715C81.5077 24.0048 81.4318 24.4013 81.2802 24.761C81.1285 25.1207 80.9053 25.4305 80.6107 25.6905C80.3203 25.9505 79.9585 26.1542 79.5252 26.3015C79.0962 26.4445 78.6 26.516 78.0367 26.516H76.5417V30H75.2872V20.6855H78.0367ZM89.6338 28.076C89.7031 28.076 89.7638 28.1042 89.8158 28.1605L90.3163 28.7C89.9349 29.142 89.4713 29.4865 88.9253 29.7335C88.3836 29.9805 87.7271 30.104 86.9558 30.104C86.2884 30.104 85.6818 29.9892 85.1358 29.7595C84.5898 29.5255 84.1239 29.2005 83.7383 28.7845C83.3526 28.3642 83.0536 27.8615 82.8413 27.2765C82.6289 26.6915 82.5228 26.048 82.5228 25.346C82.5228 24.644 82.6333 24.0005 82.8543 23.4155C83.0753 22.8305 83.3851 22.3278 83.7838 21.9075C84.1868 21.4872 84.6678 21.1622 85.2268 20.9325C85.7858 20.6985 86.4033 20.5815 87.0793 20.5815C87.7423 20.5815 88.3273 20.6877 88.8343 20.9C89.3413 21.1123 89.7876 21.4005 90.1733 21.7645L89.7573 22.343C89.7313 22.3863 89.6966 22.4232 89.6533 22.4535C89.6143 22.4795 89.5601 22.4925 89.4908 22.4925C89.4128 22.4925 89.3174 22.4513 89.2048 22.369C89.0921 22.2823 88.9448 22.187 88.7628 22.083C88.5808 21.979 88.3533 21.8858 88.0803 21.8035C87.8073 21.7168 87.4714 21.6735 87.0728 21.6735C86.5918 21.6735 86.1519 21.758 85.7533 21.927C85.3546 22.0917 85.0101 22.3322 84.7198 22.6485C84.4338 22.9648 84.2106 23.3505 84.0503 23.8055C83.8899 24.2605 83.8098 24.774 83.8098 25.346C83.8098 25.9267 83.8921 26.4445 84.0568 26.8995C84.2258 27.3545 84.4533 27.7402 84.7393 28.0565C85.0296 28.3685 85.3698 28.6068 85.7598 28.7715C86.1541 28.9362 86.5788 29.0185 87.0338 29.0185C87.3111 29.0185 87.5603 29.0033 87.7813 28.973C88.0066 28.9383 88.2124 28.8863 88.3988 28.817C88.5894 28.7477 88.7649 28.661 88.9253 28.557C89.0899 28.4487 89.2524 28.3208 89.4128 28.1735C89.4864 28.1085 89.5601 28.076 89.6338 28.076ZM93.0394 30H91.7784V20.6855H93.0394V30ZM104.028 25.346C104.028 26.0437 103.917 26.685 103.696 27.27C103.475 27.8507 103.163 28.3512 102.76 28.7715C102.357 29.1918 101.872 29.519 101.304 29.753C100.741 29.9827 100.117 30.0975 99.4324 30.0975C98.7478 30.0975 98.1238 29.9827 97.5604 29.753C96.9971 29.519 96.5139 29.1918 96.1109 28.7715C95.7079 28.3512 95.3959 27.8507 95.1749 27.27C94.9539 26.685 94.8434 26.0437 94.8434 25.346C94.8434 24.6483 94.9539 24.0092 95.1749 23.4285C95.3959 22.8435 95.7079 22.3408 96.1109 21.9205C96.5139 21.4958 96.9971 21.1665 97.5604 20.9325C98.1238 20.6985 98.7478 20.5815 99.4324 20.5815C100.117 20.5815 100.741 20.6985 101.304 20.9325C101.872 21.1665 102.357 21.4958 102.76 21.9205C103.163 22.3408 103.475 22.8435 103.696 23.4285C103.917 24.0092 104.028 24.6483 104.028 25.346ZM102.734 25.346C102.734 24.774 102.656 24.2605 102.5 23.8055C102.344 23.3505 102.123 22.967 101.837 22.655C101.551 22.3387 101.205 22.096 100.797 21.927C100.39 21.758 99.9351 21.6735 99.4324 21.6735C98.9341 21.6735 98.4813 21.758 98.0739 21.927C97.6666 22.096 97.3178 22.3387 97.0274 22.655C96.7414 22.967 96.5204 23.3505 96.3644 23.8055C96.2084 24.2605 96.1304 24.774 96.1304 25.346C96.1304 25.918 96.2084 26.4315 96.3644 26.8865C96.5204 27.3372 96.7414 27.7207 97.0274 28.037C97.3178 28.349 97.6666 28.5895 98.0739 28.7585C98.4813 28.9232 98.9341 29.0055 99.4324 29.0055C99.9351 29.0055 100.39 28.9232 100.797 28.7585C101.205 28.5895 101.551 28.349 101.837 28.037C102.123 27.7207 102.344 27.3372 102.5 26.8865C102.656 26.4315 102.734 25.918 102.734 25.346ZM113.379 20.6855V30H112.748C112.648 30 112.564 29.9827 112.495 29.948C112.43 29.9133 112.365 29.8548 112.3 29.7725L106.911 22.7525C106.92 22.8608 106.926 22.967 106.931 23.071C106.935 23.175 106.937 23.2725 106.937 23.3635V30H105.832V20.6855H106.482C106.538 20.6855 106.586 20.6898 106.625 20.6985C106.664 20.7028 106.699 20.7137 106.729 20.731C106.759 20.744 106.79 20.7657 106.82 20.796C106.85 20.822 106.883 20.8567 106.918 20.9L112.306 27.9135C112.297 27.8008 112.289 27.6925 112.28 27.5885C112.276 27.4802 112.274 27.3783 112.274 27.283V20.6855H113.379ZM121.506 28.973L121.499 30H115.76V20.6855H121.499V21.7125H117.021V24.8065H120.648V25.7945H117.021V28.973H121.506ZM128.027 22.1415C127.988 22.2065 127.945 22.2563 127.897 22.291C127.854 22.3213 127.8 22.3365 127.735 22.3365C127.661 22.3365 127.574 22.2997 127.475 22.226C127.375 22.1523 127.249 22.0722 127.098 21.9855C126.95 21.8945 126.771 21.8122 126.558 21.7385C126.35 21.6648 126.097 21.628 125.798 21.628C125.516 21.628 125.267 21.667 125.05 21.745C124.838 21.8187 124.658 21.9205 124.511 22.0505C124.368 22.1805 124.259 22.3343 124.186 22.512C124.112 22.6853 124.075 22.8738 124.075 23.0775C124.075 23.3375 124.138 23.5542 124.264 23.7275C124.394 23.8965 124.563 24.0417 124.771 24.163C124.983 24.2843 125.221 24.3905 125.486 24.4815C125.754 24.5682 126.027 24.6592 126.305 24.7545C126.586 24.8498 126.859 24.9582 127.124 25.0795C127.392 25.1965 127.631 25.346 127.839 25.528C128.051 25.71 128.22 25.9332 128.346 26.1975C128.476 26.4618 128.541 26.7868 128.541 27.1725C128.541 27.5798 128.471 27.9633 128.333 28.323C128.194 28.6783 127.99 28.9882 127.722 29.2525C127.457 29.5168 127.13 29.7248 126.74 29.8765C126.355 30.0282 125.915 30.104 125.421 30.104C124.814 30.104 124.264 29.9957 123.77 29.779C123.276 29.558 122.853 29.2612 122.502 28.8885L122.866 28.2905C122.901 28.2428 122.942 28.2038 122.99 28.1735C123.042 28.1388 123.098 28.1215 123.159 28.1215C123.215 28.1215 123.278 28.1453 123.347 28.193C123.421 28.2363 123.503 28.2927 123.594 28.362C123.685 28.4313 123.789 28.5072 123.906 28.5895C124.023 28.6718 124.155 28.7477 124.303 28.817C124.454 28.8863 124.626 28.9448 124.816 28.9925C125.007 29.0358 125.221 29.0575 125.46 29.0575C125.759 29.0575 126.025 29.0163 126.259 28.934C126.493 28.8517 126.69 28.7368 126.851 28.5895C127.015 28.4378 127.141 28.258 127.228 28.05C127.314 27.842 127.358 27.6102 127.358 27.3545C127.358 27.0728 127.293 26.8432 127.163 26.6655C127.037 26.4835 126.87 26.3318 126.662 26.2105C126.454 26.0892 126.216 25.9873 125.947 25.905C125.679 25.8183 125.406 25.7317 125.128 25.645C124.851 25.554 124.578 25.45 124.309 25.333C124.041 25.216 123.802 25.0643 123.594 24.878C123.386 24.6917 123.217 24.4598 123.087 24.1825C122.962 23.9008 122.899 23.5542 122.899 23.1425C122.899 22.8132 122.962 22.4947 123.087 22.187C123.217 21.8793 123.404 21.6063 123.646 21.368C123.893 21.1297 124.194 20.939 124.55 20.796C124.909 20.653 125.321 20.5815 125.785 20.5815C126.305 20.5815 126.777 20.6638 127.202 20.8285C127.631 20.9932 128.008 21.2315 128.333 21.5435L128.027 22.1415Z" fill="white"/>
<defs>
<clipPath id="clip0_62_12">
<rect width="35" height="35" fill="white"/>
</clipPath>
</defs>
</svg>
