<?xml version="1.0" encoding="utf-8"?>
<!-- Generator: Adobe Illustrator 27.6.1, SVG Export Plug-In . SVG Version: 6.00 Build 0)  -->
<svg version="1.1" id="Line_Expand" xmlns="http://www.w3.org/2000/svg" xmlns:xlink="http://www.w3.org/1999/xlink" x="0px"
	 y="0px" viewBox="0 0 512 512" style="enable-background:new 0 0 512 512;" xml:space="preserve">
<style type="text/css">
	.st0{fill:#461483;}
</style>
<path class="st0" d="M354,110.5V78h70c34.2,0,62-27.8,62-62c0-7.7-6.3-14-14-14s-14,6.3-14,14c0,18.8-15.2,34-34,34h-71.3
	c-5.4-22.5-28.1-36.3-50.5-30.8C286.9,22.9,275,34.8,271.3,50H86v-6C86,20.8,67.2,2,44,2S2,20.8,2,44v452c0,7.7,6.3,14,14,14h56
	c7.7,0,14-6.3,14-14V78h184v32.5C163.1,133.7,95.3,239.2,118.5,346S247.1,520.7,354,497.5C460.9,474.3,528.7,368.9,505.5,262
	C489,186.2,429.8,127,354,110.5z M58,482H30V44c0-7.7,6.3-14,14-14s14,6.3,14,14V482z M298,60c0-7.7,6.3-14,14-14s14,6.3,14,14v46.6
	c-4.6-0.3-9.3-0.6-14-0.6s-9.4,0.2-14,0.6V60z M465.5,376.5l-11.4-6.6c-6.7-3.9-15.3-1.6-19.1,5.1c-3.9,6.7-1.6,15.3,5.1,19.1
	l11.5,6.6c-11.6,16.7-26.1,31.2-42.8,42.8l-6.6-11.5c-3.9-6.7-12.4-9-19.1-5.1c-6.7,3.9-9,12.4-5.1,19.1l6.6,11.4
	c-18.4,8.7-38.2,14.1-58.5,15.7V460c0-7.7-6.3-14-14-14s-14,6.3-14,14v13.3c-20.3-1.7-40.1-7-58.5-15.7l6.6-11.4
	c3.9-6.7,1.6-15.3-5.1-19.1c-6.7-3.9-15.3-1.6-19.1,5.1l-6.6,11.5c-16.7-11.6-31.2-26.1-42.9-42.8l11.5-6.6c6.7-3.9,9-12.4,5.1-19.1
	c-3.9-6.7-12.4-9-19.1-5.1l-11.4,6.6c-8.7-18.4-14.1-38.2-15.7-58.5H156c7.7,0,14-6.3,14-14s-6.3-14-14-14h-13.3
	c1.7-20.3,7-40.1,15.7-58.5l11.4,6.6c6.7,3.9,15.3,1.6,19.1-5.1c3.9-6.7,1.6-15.3-5.1-19.1l-11.5-6.6c11.6-16.7,26.1-31.2,42.8-42.8
	l6.6,11.5c3.9,6.7,12.4,9,19.1,5.1c6.7-3.9,9-12.4,5.1-19.1l-6.6-11.4c18.4-8.7,38.2-14.1,58.5-15.7V148c0,7.7,6.3,14,14,14
	s14-6.3,14-14v-13.3c20.3,1.7,40.1,7,58.5,15.7l-6.6,11.4c-3.9,6.7-1.6,15.3,5.1,19.1c6.7,3.9,15.3,1.6,19.1-5.1l6.7-11.5
	c16.7,11.6,31.2,26.1,42.8,42.8l-11.5,6.6c-6.7,3.9-9,12.4-5.1,19.1c3.9,6.7,12.4,9,19.1,5.1l11.4-6.6c8.7,18.4,14.1,38.2,15.7,58.5
	H468c-7.7,0-14,6.3-14,14s6.3,14,14,14h13.3C479.6,338.3,474.3,358.1,465.5,376.5L465.5,376.5z"/>
<path class="st0" d="M349.8,322c10-20.6,1.5-45.4-19.1-55.4c-1.5-0.8-3.1-1.4-4.7-2V200c0-7.7-6.3-14-14-14s-14,6.3-14,14v64.6
	c-21.9,7.6-33.4,31.4-25.9,53.2c7.6,21.9,31.4,33.4,53.2,25.9c1.6-0.5,3.1-1.2,4.6-1.9l45.6,45.6c5.5,5.5,14.3,5.5,19.8,0
	s5.5-14.3,0-19.8l0,0L349.8,322z M312,318c-7.7,0-14-6.3-14-14s6.3-14,14-14s14,6.3,14,14C326,311.7,319.7,318,312,318z"/>
</svg>
