<?xml version="1.0" encoding="utf-8"?>
<!-- Generator: Adobe Illustrator 27.6.1, SVG Export Plug-In . SVG Version: 6.00 Build 0)  -->
<svg version="1.1" id="svg3450" xmlns:svg="http://www.w3.org/2000/svg"
	 xmlns="http://www.w3.org/2000/svg" xmlns:xlink="http://www.w3.org/1999/xlink" x="0px" y="0px" viewBox="0 0 682.7 682.7"
	 style="enable-background:new 0 0 682.7 682.7;" xml:space="preserve">
<style type="text/css">
	.st0{fill:#461483;}
</style>
<g id="g3456" transform="matrix(1.3333333,0,0,-1.3333333,0,682.66667)">
	<g id="g3458">
		<g>
			<g id="g3460">
				<g id="g3466" transform="translate(348.2793,173.9717)">
					<g id="path3468">
						<path class="st0" d="M94.7-94.3c-2.3,0-4.5,1-6,2.9c-2.5,3.3-1.9,8,1.4,10.5c4.7,3.6,7.4,9.1,7.4,15
							c0,10.4-8.5,18.9-18.9,18.9c-0.4,0-0.8,0-1.4-0.1c-2.4-0.2-4.7,0.8-6.3,2.7c-1.5,1.8-2.1,4.3-1.5,6.6c0.4,1.5,0.6,3.1,0.6,4.7
							c0,10.4-8.5,18.9-18.9,18.9c-5.3,0-10.4-2.2-14-6.2c-1.7-1.9-4.3-2.8-6.8-2.3c-2.5,0.4-4.6,2.1-5.6,4.5
							c-3,7-9.8,11.5-17.4,11.5c-1.8,0-3.5-0.2-5.2-0.7c-4-1.2-8.1,1.1-9.3,5.1c-1.2,4,1.1,8.1,5.1,9.3c3,0.9,6.2,1.3,9.4,1.3
							c10.3,0,19.9-4.7,26.2-12.4C38.8-0.7,44.9,1,51.1,1c18.6,0,33.7-15,33.9-33.5c15.6-3,27.5-16.8,27.5-33.3
							c0-10.6-4.9-20.5-13.3-26.9C97.9-93.8,96.3-94.3,94.7-94.3z"/>
					</g>
				</g>
				<g id="g3470" transform="translate(396.8301,344.2686)">
					<g id="path3472">
						<path class="st0" d="M0-40.8c-4.1,0-7.5,3.4-7.5,7.5V0c0,4.1,3.4,7.5,7.5,7.5S7.5,4.1,7.5,0v-33.3C7.5-37.4,4.1-40.8,0-40.8z"
							/>
					</g>
				</g>
				<g id="g3474" transform="translate(413.457,327.6416)">
					<g id="path3476">
						<path class="st0" d="M0-7.5h-33.3c-4.1,0-7.5,3.4-7.5,7.5s3.4,7.5,7.5,7.5H0c4.1,0,7.5-3.4,7.5-7.5S4.1-7.5,0-7.5z"/>
					</g>
				</g>
				<g id="g3478" transform="translate(84.9111,325.8208)">
					<g id="path3480">
						<path class="st0" d="M263.4-246.1c-4.1,0-7.5,3.4-7.5,7.5v170.2c0,47.2-38.4,85.7-85.7,85.7H63.3C41.6,17.3,21,9.2,5.1-5.5
							c-3-2.8-7.8-2.6-10.6,0.4c-2.8,3-2.6,7.8,0.4,10.6c18.6,17.3,42.9,26.8,68.3,26.8h106.9c55.5,0,100.7-45.2,100.7-100.7v-170.2
							C270.9-242.7,267.5-246.1,263.4-246.1z"/>
					</g>
				</g>
				<g id="g3482" transform="translate(56.6611,275.061)">
					<g id="path3484">
						<path class="st0" d="M247.7-275.1H42.2c-28.3,0-51.4,23-51.4,51.4v206c0,6.5,0.6,12.9,1.8,19.1c0.8,4.1,4.7,6.7,8.8,5.9
							c4.1-0.8,6.7-4.7,5.9-8.8c-1-5.3-1.5-10.7-1.5-16.2v-206c0-20.1,16.3-36.4,36.4-36.4h205.6c4.1,0,7.5-3.4,7.5-7.5
							S251.9-275.1,247.7-275.1z"/>
					</g>
				</g>
				<g id="g3486" transform="translate(121.8198,346.8101)">
					<g id="path3488">
						<path class="st0" d="M0-7.5c-4.1,0-7.5,3.4-7.5,7.5v21.5c0,9.1,3.2,18.1,9,25.1c2.6,3.2,7.4,3.7,10.6,1
							c3.2-2.6,3.7-7.4,1-10.6c-3.6-4.4-5.6-9.9-5.6-15.6V0C7.5-4.1,4.1-7.5,0-7.5z"/>
					</g>
				</g>
				<g id="g3490" transform="translate(156,400.4702)">
					<g id="path3492">
						<path class="st0" d="M125.4-61.2c-4.1,0-7.5,3.4-7.5,7.5v21.5c0,13.6-11.1,24.6-24.6,24.6H0c-4.1,0-7.5,3.4-7.5,7.5
							S-4.1,7.5,0,7.5h93.3c21.9,0,39.6-17.8,39.6-39.6v-21.5C132.9-57.8,129.6-61.2,125.4-61.2z"/>
					</g>
				</g>
				<g id="path3494">
					<path class="st0" d="M222.6,393h-41.9c-4.1,0-7.5,3.4-7.5,7.5v68.3c0,4.1,3.4,7.5,7.5,7.5h41.9c4.1,0,7.5-3.4,7.5-7.5v-68.3
						C230.1,396.3,226.7,393,222.6,393z M188.2,408h26.9v53.3h-26.9V408z"/>
				</g>
				<g id="g3496" transform="translate(144.7656,486.6299)">
					<g id="path3498">
						<path class="st0" d="M179.8-53.1h-36.5c-4.1,0-7.5,3.4-7.5,7.5v20.2H17.9C3.9-25.4-7.5-14-7.5,0S3.9,25.4,17.9,25.4h144.1
							c14,0,25.4-11.4,25.4-25.4v-45.6C187.3-49.7,183.9-53.1,179.8-53.1z M150.8-38.1h21.5V0c0,5.7-4.7,10.4-10.4,10.4H17.9
							C12.2,10.4,7.5,5.7,7.5,0s4.7-10.4,10.4-10.4h125.4c4.1,0,7.5-3.4,7.5-7.5V-38.1z"/>
					</g>
				</g>
				<g id="g3500" transform="translate(477.6001,31.3101)">
					<g id="path3502">
						<path class="st0" d="M-36.5-31.3h-138.4c-26.1,0-47.4,21.2-47.4,47.4c0,12.7,4.9,24.5,13.9,33.5c8.9,8.9,20.8,13.9,33.5,13.9
							h138.4c26.1,0,47.4-21.2,47.4-47.4C10.9,9.4,9.5,3,6.9-3C5.2-6.8,0.8-8.5-3-6.9C-6.8-5.2-8.5-0.8-6.9,3
							c1.8,4.1,2.7,8.5,2.7,13c0,17.8-14.5,32.4-32.4,32.4h-138.4c-8.6,0-16.8-3.4-22.9-9.5c-6.1-6.1-9.5-14.2-9.5-22.9
							c0-17.8,14.5-32.4,32.4-32.4h138.4c4.3,0,8.5,0.8,12.4,2.5c3.8,1.6,8.2-0.2,9.8-4c1.6-3.8-0.2-8.2-4-9.8
							C-24.1-30.1-30.2-31.3-36.5-31.3z"/>
					</g>
				</g>
				<g id="g3504" transform="translate(265.3003,257.7007)">
					<g id="path3506">
						<path class="st0" d="M-63.7-161.2c-26.1,0-50.6,10.1-69,28.6c-38,38-38,99.9,0,137.9c38,38,99.9,38,137.9,0l0,0c0,0,0,0,0,0
							c18.4-18.4,28.6-42.9,28.6-69c0-26.1-10.1-50.6-28.6-69C-13.1-151.1-37.6-161.2-63.7-161.2z M-63.7,18.8
							c-21.1,0-42.3-8-58.4-24.1c-32.2-32.2-32.2-84.6,0-116.7c15.6-15.6,36.3-24.2,58.4-24.2c22,0,42.8,8.6,58.4,24.2
							c15.6,15.6,24.2,36.3,24.2,58.4S10.3-20.9-5.3-5.3l0,0C-21.4,10.8-42.5,18.8-63.7,18.8z"/>
					</g>
				</g>
				<g id="g3508" transform="translate(229.564,171.3838)">
					<g id="path3510">
						<path class="st0" d="M-27.9-35.4c-19.5,0-35.4,15.9-35.4,35.4s15.9,35.4,35.4,35.4C-8.4,35.4,7.5,19.5,7.5,0
							S-8.4-35.4-27.9-35.4z M-27.9,20.4c-11.3,0-20.4-9.2-20.4-20.4s9.2-20.4,20.4-20.4c11.3,0,20.4,9.2,20.4,20.4
							S-16.7,20.4-27.9,20.4z"/>
					</g>
				</g>
				<g id="g3512" transform="translate(214.7363,231.4995)">
					<g id="path3514">
						<path class="st0" d="M-13.1-20.6c-11.4,0-20.6,9.2-20.6,20.6c0,11.4,9.2,20.6,20.6,20.6C-1.7,20.6,7.5,11.4,7.5,0
							C7.5-11.4-1.7-20.6-13.1-20.6z M-13.1,5.6c-3.1,0-5.6-2.5-5.6-5.6s2.5-5.6,5.6-5.6S-7.5-3.1-7.5,0S-10,5.6-13.1,5.6z"/>
					</g>
				</g>
				<g id="g3516" transform="translate(165.8848,206.2119)">
					<g id="path3518">
						<path class="st0" d="M-13.1-20.6c-11.4,0-20.6,9.2-20.6,20.6c0,11.4,9.2,20.6,20.6,20.6C-1.7,20.6,7.5,11.4,7.5,0
							C7.5-11.4-1.7-20.6-13.1-20.6z M-13.1,5.6c-3.1,0-5.6-2.5-5.6-5.6s2.5-5.6,5.6-5.6c3.1,0,5.6,2.5,5.6,5.6S-10,5.6-13.1,5.6z"
							/>
					</g>
				</g>
				<g id="g3520" transform="translate(263.5879,206.2119)">
					<g id="path3522">
						<path class="st0" d="M-13.1-20.6c-11.4,0-20.6,9.2-20.6,20.6c0,11.4,9.2,20.6,20.6,20.6C-1.7,20.6,7.5,11.4,7.5,0
							C7.5-11.4-1.7-20.6-13.1-20.6z M-13.1,5.6c-3.1,0-5.6-2.5-5.6-5.6s2.5-5.6,5.6-5.6S-7.5-3.1-7.5,0S-10,5.6-13.1,5.6z"/>
					</g>
				</g>
				<g id="g3524" transform="translate(467.4946,253.8184)">
					<g id="path3526">
						<path class="st0" d="M-24.4-63.9c-12.9,0-23.5,10.5-23.5,23.5v1h-1c-12.9,0-23.5,10.5-23.5,23.5C-72.3-3-61.8,7.5-48.9,7.5h1
							v1c0,12.9,10.5,23.5,23.5,23.5C-11.5,31.9-1,21.4-1,8.5v-1h1C12.9,7.5,23.5-3,23.5-16c0-12.9-10.5-23.5-23.5-23.5h-1v-1
							C-1-53.3-11.5-63.9-24.4-63.9z M-48.9-7.5c-4.7,0-8.5-3.8-8.5-8.5c0-4.7,3.8-8.5,8.5-8.5h8.5c4.1,0,7.5-3.4,7.5-7.5v-8.5
							c0-4.7,3.8-8.5,8.5-8.5c4.7,0,8.5,3.8,8.5,8.5v8.5c0,4.1,3.4,7.5,7.5,7.5H0c4.7,0,8.5,3.8,8.5,8.5c0,4.7-3.8,8.5-8.5,8.5h-8.5
							C-12.6-7.5-16-4.1-16,0v8.5c0,4.7-3.8,8.5-8.5,8.5c-4.7,0-8.5-3.8-8.5-8.5V0c0-4.1-3.4-7.5-7.5-7.5H-48.9z"/>
					</g>
				</g>
				<g id="g3528" transform="translate(93.3887,325.6465)">
					<g id="path3530">
						<path class="st0" d="M-24.4-63.9c-12.9,0-23.5,10.5-23.5,23.5v1h-1c-12.9,0-23.5,10.5-23.5,23.5S-61.8,7.5-48.9,7.5h1v1
							c0,12.9,10.5,23.5,23.5,23.5C-11.5,31.9-1,21.4-1,8.5v-1h1C12.9,7.5,23.5-3,23.5-16S12.9-39.4,0-39.4h-1v-1
							C-1-53.3-11.5-63.9-24.4-63.9z M-48.9-7.5c-4.7,0-8.5-3.8-8.5-8.5s3.8-8.5,8.5-8.5h8.5c4.1,0,7.5-3.4,7.5-7.5v-8.5
							c0-4.7,3.8-8.5,8.5-8.5s8.5,3.8,8.5,8.5v8.5c0,4.1,3.4,7.5,7.5,7.5H0c4.7,0,8.5,3.8,8.5,8.5S4.7-7.5,0-7.5h-8.5
							C-12.6-7.5-16-4.1-16,0v8.5c0,4.7-3.8,8.5-8.5,8.5s-8.5-3.8-8.5-8.5V0c0-4.1-3.4-7.5-7.5-7.5H-48.9z"/>
					</g>
				</g>
			</g>
		</g>
	</g>
</g>
</svg>
