<?xml version="1.0" encoding="utf-8"?>
<!-- Generator: Adobe Illustrator 27.5.0, SVG Export Plug-In . SVG Version: 6.00 Build 0)  -->
<svg version="1.1" id="Layer_1" xmlns="http://www.w3.org/2000/svg" xmlns:xlink="http://www.w3.org/1999/xlink" x="0px" y="0px"
	 viewBox="0 0 512 512" style="enable-background:new 0 0 512 512;" xml:space="preserve">
<style type="text/css">
	.st0{fill:#FFFFFF;}
</style>
<g id="Page-1">
	<g id="_x30_36---Vaccinations" transform="translate(-1)">
		<path id="Shape" class="st0" d="M9.5,512c2.3,0,4.4-0.9,6-2.5L77.1,448c10,10,26.2,10,36.2,0l22.7-22.7
			c35.4,15.6,76.7,7.8,104-19.6l20.3-20.3c0.3,0.6,0.4,1.3,0.7,1.9c4.6,12.4,15.8,21,28.9,22.3c2.9,0,5.8-0.6,8.5-1.8
			c7.1-3.5,11.9-10.4,12.8-18.2c1.1-8-0.1-16.1-3.6-23.4c-2.8-6.2-6.9-11.6-12.2-15.8l14.6-14.6c1.9,7.7,5.7,14.8,11.1,20.6
			c5.9,6.6,14.3,10.4,23.1,10.6c1.1,0,2.2-0.1,3.2-0.2c9.9-1.4,18.5-7.4,23.2-16.2c10.1-18.9,7.4-42.1-6.8-58.1
			c-1.7-1.8-3.6-3.4-5.6-4.8l44.7-44.8c6.4,6.6,15.9,9.1,24.8,6.8s15.8-9.3,18.2-18.2c2.4-8.9-0.2-18.4-6.8-24.8l-42.2-42.2
			l36.2-36.2l24.1,24.1c4.8,4.8,11.3,7.5,18.1,7.5c6.8,0,13.3-2.7,18.1-7.5l12.1-12.1c4.8-4.8,7.5-11.3,7.5-18.1s-2.7-13.3-7.5-18.1
			L409,7.5c-10.1-9.7-26.1-9.7-36.2,0l-12.1,12.1c-10,10-10,26.2,0,36.2l24.1,24.1l-36.2,36.2l-42.2-42.2c-10-10-26.2-10-36.2,0
			c-10,10-10,26.2,0,36.2l-24.1,24.1H246v0.1L222,158.3l-24.1,24.2l-0.1,0l-0.1,0.1l-72.3,72.3l-0.1,0.1l0,0.1l-18,18
			c-27.4,27.3-35.2,68.7-19.6,104.1L65,399.7c-4.8,4.8-7.5,11.3-7.5,18.1s2.7,13.3,7.5,18.1L3.5,497.4c-2.4,2.4-3.2,6.1-1.8,9.3
			S6.1,512,9.5,512L9.5,512z M294.4,386.8c-0.1,2.2-1.2,4.2-3,5.4c-3.2,1.4-10.5-2.6-14.8-12c-2-4.2-2.8-9-2.3-13.7
			c0.1-2.2,1.2-4.2,3-5.4c0.5-0.2,0.9-0.3,1.4-0.3c1.7,0.1,3.2,0.7,4.6,1.6c3.9,2.7,6.9,6.4,8.8,10.7
			C294.1,377.4,294.9,382.1,294.4,386.8L294.4,386.8z M355.9,341.9c-1.8,4.3-5.8,7.3-10.4,7.9c-4.6,0.5-9.2-1.5-12-5.2
			c-9-10.5-10.8-25.4-4.4-37.8c2.1-4.1,5.9-7,10.4-7.9c0.4-0.1,0.9-0.1,1.3-0.1c4.1,0.3,8,2.2,10.7,5.3
			C360.5,314.7,362.2,329.6,355.9,341.9z M372.7,31.6l12.1-12.1c3.3-3.3,8.7-3.3,12.1,0l96.5,96.5c1.6,1.6,2.5,3.8,2.5,6
			c0,2.3-0.9,4.4-2.5,6l-12.1,12.1c-3.4,3.2-8.7,3.2-12.1,0L421,92l-18.1-18.1l-30.2-30.2C369.4,40.4,369.4,35,372.7,31.6
			L372.7,31.6z M396.9,92l24.1,24.1l-36.2,36.2l-24.1-24.1L396.9,92z M282.2,85.9c1.6-1.6,3.8-2.5,6-2.5c2.3,0,4.4,0.9,6,2.5
			l48.3,48.3l18.1,18.1l66.4,66.4c3.3,3.3,3.3,8.7,0,12.1c-3.4,3.2-8.7,3.2-12.1,0l-6-6L288.3,104.1l-6-6c-1.6-1.6-2.6-3.8-2.6-6.1
			C279.7,89.7,280.6,87.6,282.2,85.9L282.2,85.9z M390.9,230.7l-51.2,51.2c-0.7,0-1.5-0.1-2.2,0c-1.9,0.3-3.7,0.7-5.5,1.4
			c-24.7,1.5-49.3-4.6-70.5-17.5c-27.4-17-57.9-28.3-89.8-33.1l32.1-32.1l18.1,18.1c2.2,2.2,5.3,3,8.2,2.2c2.9-0.8,5.2-3.1,6-6
			c0.8-2.9,0-6.1-2.2-8.2l-18.1-18.1l12.1-12.1l18.1,18.1c3.3,3.2,8.7,3.2,12-0.1c3.3-3.3,3.3-8.6,0.1-12l-18.1-18.1l12.1-12.1
			l18.1,18.1c3.3,3.2,8.7,3.2,12-0.1c3.3-3.3,3.3-8.6,0.1-12l-18.1-18.1l18.1-18.1L390.9,230.7z M108.6,298.5l16.7,16.7
			c2.1,2.2,5.3,3.1,8.3,2.3c3-0.8,5.3-3.1,6.1-6.1s-0.1-6.2-2.3-8.3l-18.1-18.1l12.1-12.1l18.1,18.1c2.1,2.3,5.3,3.2,8.3,2.4
			c3-0.8,5.4-3.1,6.1-6.1c0.8-3-0.2-6.2-2.4-8.3l-18.1-18.1l13-13c34.1,3.3,66.9,14.4,96,32.4c18.4,11.4,39.4,18.1,61,19.6
			c-2.1,3.9-3.6,8.2-4.4,12.6L277.6,344c-2.5,0.1-5,0.6-7.3,1.6c-7.1,3.5-11.9,10.4-12.8,18.2v0.3L228,393.6
			c-27.7,27.5-71.6,30-102.1,5.6C95.4,374.9,88,331.6,108.6,298.5L108.6,298.5z M77.1,411.8l19.2-19.2c6.5,9.5,14.7,17.7,24.1,24.1
			l-19.2,19.2c-3.4,3.2-8.7,3.2-12.1,0l-12.1-12.1C73.8,420.5,73.8,415.1,77.1,411.8L77.1,411.8z"/>
		<path id="Shape_00000152963215167893338700000008819158478493990304_" class="st0" d="M299.7,460.8c0,37.8,27.6,51.2,51.2,51.2
			c7.3,0.2,14.5-1.6,20.9-5.1c8.3-4.5,18.2-4.5,26.5,0c6.4,3.5,13.6,5.3,20.9,5.1c23.6,0,51.2-13.4,51.2-51.2
			c0-39.1-46.3-85.3-85.3-85.3S299.7,421.7,299.7,460.8L299.7,460.8z M453.3,460.8c0.9,9.3-2.4,18.5-9,25.1
			c-6.6,6.6-15.8,9.9-25.1,9c-4.7,0.1-9.2-1.1-13.3-3.4c-13.1-6.9-28.7-6.9-41.8,0c-4,2.4-8.6,3.5-13.3,3.4
			c-9.3,0.9-18.5-2.4-25.1-9c-6.6-6.6-9.9-15.8-9-25.1c0-29.3,38.9-68.3,68.3-68.3S453.3,431.5,453.3,460.8L453.3,460.8z"/>
		<path id="Shape_00000150816641599928761180000016423168261237012159_" class="st0" d="M456,298c-4.5-9-13.2-15-23.2-16.2
			c-10-1.2-19.8,2.7-26.3,10.4c-14.2,16-17,39.2-6.8,58.1c4.7,8.8,13.3,14.8,23.2,16.2c1.1,0.1,2.1,0.2,3.2,0.2
			c8.8-0.2,17.2-4,23.1-10.6C463.4,340.1,466.1,316.9,456,298L456,298z M444.7,326.2c-0.7,6.8-3.5,13.1-8,18.2
			c-2.8,3.8-7.3,5.8-12,5.2c-4.6-0.5-8.6-3.5-10.4-7.9c-6.3-12.3-4.6-27.2,4.4-37.8c2.7-3.1,6.6-5,10.7-5.3c0.4,0,0.8,0,1.3,0.1
			c4.5,0.9,8.4,3.8,10.4,7.9C444.4,312.6,445.7,319.4,444.7,326.2L444.7,326.2z"/>
		<path id="Shape_00000132072393208824099680000014184786128536613770_" class="st0" d="M499.8,345.6c-7.3-3-15.6-2.1-22.1,2.4
			c-13.6,9.2-20.9,25.3-18.9,41.6c0.9,7.8,5.7,14.7,12.8,18.2c2.7,1.2,5.6,1.8,8.5,1.8c13.1-1.3,24.3-10,28.9-22.3
			c3.5-7.3,4.7-15.4,3.6-23.4C511.7,356,506.9,349.1,499.8,345.6L499.8,345.6z M493.4,380.2c-4.3,9.5-11.7,13.4-14.8,12
			c-1.8-1.2-2.9-3.2-3-5.4c-0.6-4.7,0.2-9.4,2.3-13.7c1.8-4.3,4.9-8,8.8-10.7c1.4-0.9,3-1.5,4.6-1.6c0.5,0,1,0.1,1.4,0.3
			c1.8,1.2,2.9,3.2,3,5.4C496.3,371.2,495.5,376,493.4,380.2L493.4,380.2z"/>
	</g>
</g>
</svg>
